  0
SECTION
  2
BLOCKS
  0
ENDSEC
  0
SECTION
  2
ENTITIES
  0
LINE
  8
0
 10
22.1737
 20
-7.0728
 11
22.9776
 21
-6.93105
  0
LINE
  8
0
 10
22.9776
 20
-6.93105
 11
142.548
 21
17.1988
  0
LINE
  8
0
 10
142.548
 20
17.1988
 11
143.328
 21
17.4401
  0
LINE
  8
0
 10
143.328
 20
17.4401
 11
144.072
 21
17.7774
  0
LINE
  8
0
 10
144.072
 20
17.7774
 11
144.767
 21
18.2051
  0
LINE
  8
0
 10
144.767
 20
18.2051
 11
145.403
 21
18.7166
  0
LINE
  8
0
 10
145.403
 20
18.7166
 11
145.97
 21
19.3037
  0
LINE
  8
0
 10
145.97
 20
19.3037
 11
146.459
 21
19.9573
  0
LINE
  8
0
 10
146.459
 20
19.9573
 11
146.862
 21
20.6671
  0
LINE
  8
0
 10
146.862
 20
20.6671
 11
147.173
 21
21.4218
  0
LINE
  8
0
 10
147.173
 20
21.4218
 11
147.387
 21
22.2095
  0
LINE
  8
0
 10
147.387
 20
22.2095
 11
147.501
 21
23.0178
  0
LINE
  8
0
 10
147.501
 20
23.0178
 11
147.512
 21
23.834
  0
LINE
  8
0
 10
147.512
 20
23.834
 11
147.421
 21
24.6452
  0
LINE
  8
0
 10
147.421
 20
24.6452
 11
129.554
 21
125.976
  0
LINE
  8
0
 10
129.554
 20
125.976
 11
129.362
 21
126.77
  0
LINE
  8
0
 10
129.362
 20
126.77
 11
129.072
 21
127.533
  0
LINE
  8
0
 10
129.072
 20
127.533
 11
128.689
 21
128.253
  0
LINE
  8
0
 10
128.689
 20
128.253
 11
128.218
 21
128.921
  0
LINE
  8
0
 10
128.218
 20
128.921
 11
127.668
 21
129.523
  0
LINE
  8
0
 10
127.668
 20
129.523
 11
127.046
 21
130.052
  0
LINE
  8
0
 10
127.046
 20
130.052
 11
126.363
 21
130.499
  0
LINE
  8
0
 10
126.363
 20
130.499
 11
125.629
 21
130.857
  0
LINE
  8
0
 10
125.629
 20
130.857
 11
124.857
 21
131.12
  0
LINE
  8
0
 10
124.857
 20
131.12
 11
124.057
 21
131.284
  0
LINE
  8
0
 10
124.057
 20
131.284
 11
123.243
 21
131.347
  0
LINE
  8
0
 10
123.243
 20
131.347
 11
-123.243
 21
131.347
  0
LINE
  8
0
 10
-123.243
 20
131.347
 11
-124.057
 21
131.284
  0
LINE
  8
0
 10
-124.057
 20
131.284
 11
-124.857
 21
131.12
  0
LINE
  8
0
 10
-124.857
 20
131.12
 11
-125.629
 21
130.857
  0
LINE
  8
0
 10
-125.629
 20
130.857
 11
-126.363
 21
130.499
  0
LINE
  8
0
 10
-126.363
 20
130.499
 11
-127.046
 21
130.052
  0
LINE
  8
0
 10
-127.046
 20
130.052
 11
-127.668
 21
129.523
  0
LINE
  8
0
 10
-127.668
 20
129.523
 11
-128.218
 21
128.921
  0
LINE
  8
0
 10
-128.218
 20
128.921
 11
-128.689
 21
128.253
  0
LINE
  8
0
 10
-128.689
 20
128.253
 11
-129.072
 21
127.533
  0
LINE
  8
0
 10
-129.072
 20
127.533
 11
-129.362
 21
126.77
  0
LINE
  8
0
 10
-129.362
 20
126.77
 11
-129.554
 21
125.976
  0
LINE
  8
0
 10
-129.554
 20
125.976
 11
-147.421
 21
24.6452
  0
LINE
  8
0
 10
-147.421
 20
24.6452
 11
-147.512
 21
23.834
  0
LINE
  8
0
 10
-147.512
 20
23.834
 11
-147.501
 21
23.0178
  0
LINE
  8
0
 10
-147.501
 20
23.0178
 11
-147.387
 21
22.2095
  0
LINE
  8
0
 10
-147.387
 20
22.2095
 11
-147.173
 21
21.4218
  0
LINE
  8
0
 10
-147.173
 20
21.4218
 11
-146.862
 21
20.6671
  0
LINE
  8
0
 10
-146.862
 20
20.6671
 11
-146.459
 21
19.9573
  0
LINE
  8
0
 10
-146.459
 20
19.9573
 11
-145.97
 21
19.3037
  0
LINE
  8
0
 10
-145.97
 20
19.3037
 11
-145.403
 21
18.7166
  0
LINE
  8
0
 10
-145.403
 20
18.7166
 11
-144.767
 21
18.2051
  0
LINE
  8
0
 10
-144.767
 20
18.2051
 11
-144.072
 21
17.7774
  0
LINE
  8
0
 10
-144.072
 20
17.7774
 11
-143.328
 21
17.4401
  0
LINE
  8
0
 10
-143.328
 20
17.4401
 11
-142.548
 21
17.1988
  0
LINE
  8
0
 10
-142.548
 20
17.1988
 11
-22.9776
 21
-6.93105
  0
LINE
  8
0
 10
-22.9776
 20
-6.93105
 11
-22.1737
 21
-7.0728
  0
LINE
  8
0
 10
-22.1737
 20
-7.0728
 11
-21.3584
 21
-7.11267
  0
LINE
  8
0
 10
-21.3584
 20
-7.11267
 11
21.3584
 21
-7.11267
  0
LINE
  8
0
 10
21.3584
 20
-7.11267
 11
22.1737
 21
-7.0728
  0
LINE
  8
0
 10
11.7237
 20
123.263
 11
11.5269
 21
123.304
  0
LINE
  8
0
 10
11.5269
 20
123.304
 11
11.3367
 21
123.368
  0
LINE
  8
0
 10
11.3367
 20
123.368
 11
11.1561
 21
123.456
  0
LINE
  8
0
 10
11.1561
 20
123.456
 11
10.9879
 21
123.566
  0
LINE
  8
0
 10
10.9879
 20
123.566
 11
10.8349
 21
123.697
  0
LINE
  8
0
 10
10.8349
 20
123.697
 11
10.6994
 21
123.845
  0
LINE
  8
0
 10
10.6994
 20
123.845
 11
10.5836
 21
124.009
  0
LINE
  8
0
 10
10.5836
 20
124.009
 11
10.4893
 21
124.187
  0
LINE
  8
0
 10
10.4893
 20
124.187
 11
10.4179
 21
124.374
  0
LINE
  8
0
 10
10.4179
 20
124.374
 11
10.3707
 21
124.57
  0
LINE
  8
0
 10
10.3707
 20
124.57
 11
10.3483
 21
124.769
  0
LINE
  8
0
 10
10.3483
 20
124.769
 11
10.3511
 21
124.97
  0
LINE
  8
0
 10
10.3511
 20
124.97
 11
10.379
 21
125.169
  0
LINE
  8
0
 10
10.379
 20
125.169
 11
10.4317
 21
125.363
  0
LINE
  8
0
 10
10.4317
 20
125.363
 11
10.5083
 21
125.549
  0
LINE
  8
0
 10
10.5083
 20
125.549
 11
10.6075
 21
125.724
  0
LINE
  8
0
 10
10.6075
 20
125.724
 11
10.7279
 21
125.885
  0
LINE
  8
0
 10
10.7279
 20
125.885
 11
10.8675
 21
126.029
  0
LINE
  8
0
 10
10.8675
 20
126.029
 11
11.0241
 21
126.155
  0
LINE
  8
0
 10
11.0241
 20
126.155
 11
11.1952
 21
126.26
  0
LINE
  8
0
 10
11.1952
 20
126.26
 11
11.3782
 21
126.343
  0
LINE
  8
0
 10
11.3782
 20
126.343
 11
11.5701
 21
126.403
  0
LINE
  8
0
 10
11.5701
 20
126.403
 11
11.768
 21
126.438
  0
LINE
  8
0
 10
11.768
 20
126.438
 11
11.9687
 21
126.447
  0
LINE
  8
0
 10
11.9687
 20
126.447
 11
12.169
 21
126.432
  0
LINE
  8
0
 10
12.169
 20
126.432
 11
12.3659
 21
126.392
  0
LINE
  8
0
 10
12.3659
 20
126.392
 11
12.5561
 21
126.327
  0
LINE
  8
0
 10
12.5561
 20
126.327
 11
12.7367
 21
126.239
  0
LINE
  8
0
 10
12.7367
 20
126.239
 11
12.9048
 21
126.129
  0
LINE
  8
0
 10
12.9048
 20
126.129
 11
13.0578
 21
125.999
  0
LINE
  8
0
 10
13.0578
 20
125.999
 11
13.1933
 21
125.85
  0
LINE
  8
0
 10
13.1933
 20
125.85
 11
13.3091
 21
125.686
  0
LINE
  8
0
 10
13.3091
 20
125.686
 11
13.4035
 21
125.509
  0
LINE
  8
0
 10
13.4035
 20
125.509
 11
13.4748
 21
125.321
  0
LINE
  8
0
 10
13.4748
 20
125.321
 11
13.522
 21
125.125
  0
LINE
  8
0
 10
13.522
 20
125.125
 11
13.5444
 21
124.926
  0
LINE
  8
0
 10
13.5444
 20
124.926
 11
13.5416
 21
124.725
  0
LINE
  8
0
 10
13.5416
 20
124.725
 11
13.5137
 21
124.526
  0
LINE
  8
0
 10
13.5137
 20
124.526
 11
13.461
 21
124.332
  0
LINE
  8
0
 10
13.461
 20
124.332
 11
13.3844
 21
124.146
  0
LINE
  8
0
 10
13.3844
 20
124.146
 11
13.2852
 21
123.971
  0
LINE
  8
0
 10
13.2852
 20
123.971
 11
13.1648
 21
123.811
  0
LINE
  8
0
 10
13.1648
 20
123.811
 11
13.0253
 21
123.666
  0
LINE
  8
0
 10
13.0253
 20
123.666
 11
12.8687
 21
123.54
  0
LINE
  8
0
 10
12.8687
 20
123.54
 11
12.6975
 21
123.435
  0
LINE
  8
0
 10
12.6975
 20
123.435
 11
12.5145
 21
123.352
  0
LINE
  8
0
 10
12.5145
 20
123.352
 11
12.3226
 21
123.292
  0
LINE
  8
0
 10
12.3226
 20
123.292
 11
12.1247
 21
123.258
  0
LINE
  8
0
 10
12.1247
 20
123.258
 11
11.924
 21
123.248
  0
LINE
  8
0
 10
11.924
 20
123.248
 11
11.7237
 21
123.263
  0
LINE
  8
0
 10
-12.1247
 20
123.258
 11
-12.3226
 21
123.292
  0
LINE
  8
0
 10
-12.3226
 20
123.292
 11
-12.5145
 21
123.352
  0
LINE
  8
0
 10
-12.5145
 20
123.352
 11
-12.6975
 21
123.435
  0
LINE
  8
0
 10
-12.6975
 20
123.435
 11
-12.8687
 21
123.54
  0
LINE
  8
0
 10
-12.8687
 20
123.54
 11
-13.0253
 21
123.666
  0
LINE
  8
0
 10
-13.0253
 20
123.666
 11
-13.1648
 21
123.811
  0
LINE
  8
0
 10
-13.1648
 20
123.811
 11
-13.2852
 21
123.971
  0
LINE
  8
0
 10
-13.2852
 20
123.971
 11
-13.3844
 21
124.146
  0
LINE
  8
0
 10
-13.3844
 20
124.146
 11
-13.461
 21
124.332
  0
LINE
  8
0
 10
-13.461
 20
124.332
 11
-13.5137
 21
124.526
  0
LINE
  8
0
 10
-13.5137
 20
124.526
 11
-13.5416
 21
124.725
  0
LINE
  8
0
 10
-13.5416
 20
124.725
 11
-13.5444
 21
124.926
  0
LINE
  8
0
 10
-13.5444
 20
124.926
 11
-13.522
 21
125.125
  0
LINE
  8
0
 10
-13.522
 20
125.125
 11
-13.4748
 21
125.321
  0
LINE
  8
0
 10
-13.4748
 20
125.321
 11
-13.4035
 21
125.509
  0
LINE
  8
0
 10
-13.4035
 20
125.509
 11
-13.3091
 21
125.686
  0
LINE
  8
0
 10
-13.3091
 20
125.686
 11
-13.1933
 21
125.85
  0
LINE
  8
0
 10
-13.1933
 20
125.85
 11
-13.0578
 21
125.999
  0
LINE
  8
0
 10
-13.0578
 20
125.999
 11
-12.9048
 21
126.129
  0
LINE
  8
0
 10
-12.9048
 20
126.129
 11
-12.7367
 21
126.239
  0
LINE
  8
0
 10
-12.7367
 20
126.239
 11
-12.5561
 21
126.327
  0
LINE
  8
0
 10
-12.5561
 20
126.327
 11
-12.3659
 21
126.392
  0
LINE
  8
0
 10
-12.3659
 20
126.392
 11
-12.169
 21
126.432
  0
LINE
  8
0
 10
-12.169
 20
126.432
 11
-11.9687
 21
126.447
  0
LINE
  8
0
 10
-11.9687
 20
126.447
 11
-11.768
 21
126.438
  0
LINE
  8
0
 10
-11.768
 20
126.438
 11
-11.5701
 21
126.403
  0
LINE
  8
0
 10
-11.5701
 20
126.403
 11
-11.3782
 21
126.343
  0
LINE
  8
0
 10
-11.3782
 20
126.343
 11
-11.1952
 21
126.26
  0
LINE
  8
0
 10
-11.1952
 20
126.26
 11
-11.0241
 21
126.155
  0
LINE
  8
0
 10
-11.0241
 20
126.155
 11
-10.8675
 21
126.029
  0
LINE
  8
0
 10
-10.8675
 20
126.029
 11
-10.7279
 21
125.885
  0
LINE
  8
0
 10
-10.7279
 20
125.885
 11
-10.6075
 21
125.724
  0
LINE
  8
0
 10
-10.6075
 20
125.724
 11
-10.5083
 21
125.549
  0
LINE
  8
0
 10
-10.5083
 20
125.549
 11
-10.4317
 21
125.363
  0
LINE
  8
0
 10
-10.4317
 20
125.363
 11
-10.379
 21
125.169
  0
LINE
  8
0
 10
-10.379
 20
125.169
 11
-10.3511
 21
124.97
  0
LINE
  8
0
 10
-10.3511
 20
124.97
 11
-10.3483
 21
124.769
  0
LINE
  8
0
 10
-10.3483
 20
124.769
 11
-10.3707
 21
124.57
  0
LINE
  8
0
 10
-10.3707
 20
124.57
 11
-10.4179
 21
124.374
  0
LINE
  8
0
 10
-10.4179
 20
124.374
 11
-10.4893
 21
124.187
  0
LINE
  8
0
 10
-10.4893
 20
124.187
 11
-10.5836
 21
124.009
  0
LINE
  8
0
 10
-10.5836
 20
124.009
 11
-10.6994
 21
123.845
  0
LINE
  8
0
 10
-10.6994
 20
123.845
 11
-10.8349
 21
123.697
  0
LINE
  8
0
 10
-10.8349
 20
123.697
 11
-10.9879
 21
123.566
  0
LINE
  8
0
 10
-10.9879
 20
123.566
 11
-11.1561
 21
123.456
  0
LINE
  8
0
 10
-11.1561
 20
123.456
 11
-11.3367
 21
123.368
  0
LINE
  8
0
 10
-11.3367
 20
123.368
 11
-11.5269
 21
123.304
  0
LINE
  8
0
 10
-11.5269
 20
123.304
 11
-11.7237
 21
123.263
  0
LINE
  8
0
 10
-11.7237
 20
123.263
 11
-11.924
 21
123.248
  0
LINE
  8
0
 10
-11.924
 20
123.248
 11
-12.1247
 21
123.258
  0
LINE
  8
0
 10
122.93
 20
123.263
 11
122.733
 21
123.304
  0
LINE
  8
0
 10
122.733
 20
123.304
 11
122.543
 21
123.368
  0
LINE
  8
0
 10
122.543
 20
123.368
 11
122.362
 21
123.456
  0
LINE
  8
0
 10
122.362
 20
123.456
 11
122.194
 21
123.566
  0
LINE
  8
0
 10
122.194
 20
123.566
 11
122.041
 21
123.697
  0
LINE
  8
0
 10
122.041
 20
123.697
 11
121.906
 21
123.845
  0
LINE
  8
0
 10
121.906
 20
123.845
 11
121.79
 21
124.009
  0
LINE
  8
0
 10
121.79
 20
124.009
 11
121.695
 21
124.187
  0
LINE
  8
0
 10
121.695
 20
124.187
 11
121.624
 21
124.374
  0
LINE
  8
0
 10
121.624
 20
124.374
 11
121.577
 21
124.57
  0
LINE
  8
0
 10
121.577
 20
124.57
 11
121.554
 21
124.769
  0
LINE
  8
0
 10
121.554
 20
124.769
 11
121.557
 21
124.97
  0
LINE
  8
0
 10
121.557
 20
124.97
 11
121.585
 21
125.169
  0
LINE
  8
0
 10
121.585
 20
125.169
 11
121.638
 21
125.363
  0
LINE
  8
0
 10
121.638
 20
125.363
 11
121.714
 21
125.549
  0
LINE
  8
0
 10
121.714
 20
125.549
 11
121.814
 21
125.724
  0
LINE
  8
0
 10
121.814
 20
125.724
 11
121.934
 21
125.885
  0
LINE
  8
0
 10
121.934
 20
125.885
 11
122.074
 21
126.029
  0
LINE
  8
0
 10
122.074
 20
126.029
 11
122.23
 21
126.155
  0
LINE
  8
0
 10
122.23
 20
126.155
 11
122.401
 21
126.26
  0
LINE
  8
0
 10
122.401
 20
126.26
 11
122.584
 21
126.343
  0
LINE
  8
0
 10
122.584
 20
126.343
 11
122.776
 21
126.403
  0
LINE
  8
0
 10
122.776
 20
126.403
 11
122.974
 21
126.438
  0
LINE
  8
0
 10
122.974
 20
126.438
 11
123.175
 21
126.447
  0
LINE
  8
0
 10
123.175
 20
126.447
 11
123.375
 21
126.432
  0
LINE
  8
0
 10
123.375
 20
126.432
 11
123.572
 21
126.392
  0
LINE
  8
0
 10
123.572
 20
126.392
 11
123.762
 21
126.327
  0
LINE
  8
0
 10
123.762
 20
126.327
 11
123.943
 21
126.239
  0
LINE
  8
0
 10
123.943
 20
126.239
 11
124.111
 21
126.129
  0
LINE
  8
0
 10
124.111
 20
126.129
 11
124.264
 21
125.999
  0
LINE
  8
0
 10
124.264
 20
125.999
 11
124.399
 21
125.85
  0
LINE
  8
0
 10
124.399
 20
125.85
 11
124.515
 21
125.686
  0
LINE
  8
0
 10
124.515
 20
125.686
 11
124.61
 21
125.509
  0
LINE
  8
0
 10
124.61
 20
125.509
 11
124.681
 21
125.321
  0
LINE
  8
0
 10
124.681
 20
125.321
 11
124.728
 21
125.125
  0
LINE
  8
0
 10
124.728
 20
125.125
 11
124.751
 21
124.926
  0
LINE
  8
0
 10
124.751
 20
124.926
 11
124.748
 21
124.725
  0
LINE
  8
0
 10
124.748
 20
124.725
 11
124.72
 21
124.526
  0
LINE
  8
0
 10
124.72
 20
124.526
 11
124.667
 21
124.332
  0
LINE
  8
0
 10
124.667
 20
124.332
 11
124.591
 21
124.146
  0
LINE
  8
0
 10
124.591
 20
124.146
 11
124.491
 21
123.971
  0
LINE
  8
0
 10
124.491
 20
123.971
 11
124.371
 21
123.811
  0
LINE
  8
0
 10
124.371
 20
123.811
 11
124.231
 21
123.666
  0
LINE
  8
0
 10
124.231
 20
123.666
 11
124.075
 21
123.54
  0
LINE
  8
0
 10
124.075
 20
123.54
 11
123.904
 21
123.435
  0
LINE
  8
0
 10
123.904
 20
123.435
 11
123.721
 21
123.352
  0
LINE
  8
0
 10
123.721
 20
123.352
 11
123.529
 21
123.292
  0
LINE
  8
0
 10
123.529
 20
123.292
 11
123.331
 21
123.258
  0
LINE
  8
0
 10
123.331
 20
123.258
 11
123.13
 21
123.248
  0
LINE
  8
0
 10
123.13
 20
123.248
 11
122.93
 21
123.263
  0
LINE
  8
0
 10
-123.331
 20
123.258
 11
-123.529
 21
123.292
  0
LINE
  8
0
 10
-123.529
 20
123.292
 11
-123.721
 21
123.352
  0
LINE
  8
0
 10
-123.721
 20
123.352
 11
-123.904
 21
123.435
  0
LINE
  8
0
 10
-123.904
 20
123.435
 11
-124.075
 21
123.54
  0
LINE
  8
0
 10
-124.075
 20
123.54
 11
-124.231
 21
123.666
  0
LINE
  8
0
 10
-124.231
 20
123.666
 11
-124.371
 21
123.811
  0
LINE
  8
0
 10
-124.371
 20
123.811
 11
-124.491
 21
123.971
  0
LINE
  8
0
 10
-124.491
 20
123.971
 11
-124.591
 21
124.146
  0
LINE
  8
0
 10
-124.591
 20
124.146
 11
-124.667
 21
124.332
  0
LINE
  8
0
 10
-124.667
 20
124.332
 11
-124.72
 21
124.526
  0
LINE
  8
0
 10
-124.72
 20
124.526
 11
-124.748
 21
124.725
  0
LINE
  8
0
 10
-124.748
 20
124.725
 11
-124.751
 21
124.926
  0
LINE
  8
0
 10
-124.751
 20
124.926
 11
-124.728
 21
125.125
  0
LINE
  8
0
 10
-124.728
 20
125.125
 11
-124.681
 21
125.321
  0
LINE
  8
0
 10
-124.681
 20
125.321
 11
-124.61
 21
125.509
  0
LINE
  8
0
 10
-124.61
 20
125.509
 11
-124.515
 21
125.686
  0
LINE
  8
0
 10
-124.515
 20
125.686
 11
-124.399
 21
125.85
  0
LINE
  8
0
 10
-124.399
 20
125.85
 11
-124.264
 21
125.999
  0
LINE
  8
0
 10
-124.264
 20
125.999
 11
-124.111
 21
126.129
  0
LINE
  8
0
 10
-124.111
 20
126.129
 11
-123.943
 21
126.239
  0
LINE
  8
0
 10
-123.943
 20
126.239
 11
-123.762
 21
126.327
  0
LINE
  8
0
 10
-123.762
 20
126.327
 11
-123.572
 21
126.392
  0
LINE
  8
0
 10
-123.572
 20
126.392
 11
-123.375
 21
126.432
  0
LINE
  8
0
 10
-123.375
 20
126.432
 11
-123.175
 21
126.447
  0
LINE
  8
0
 10
-123.175
 20
126.447
 11
-122.974
 21
126.438
  0
LINE
  8
0
 10
-122.974
 20
126.438
 11
-122.776
 21
126.403
  0
LINE
  8
0
 10
-122.776
 20
126.403
 11
-122.584
 21
126.343
  0
LINE
  8
0
 10
-122.584
 20
126.343
 11
-122.401
 21
126.26
  0
LINE
  8
0
 10
-122.401
 20
126.26
 11
-122.23
 21
126.155
  0
LINE
  8
0
 10
-122.23
 20
126.155
 11
-122.074
 21
126.029
  0
LINE
  8
0
 10
-122.074
 20
126.029
 11
-121.934
 21
125.885
  0
LINE
  8
0
 10
-121.934
 20
125.885
 11
-121.814
 21
125.724
  0
LINE
  8
0
 10
-121.814
 20
125.724
 11
-121.714
 21
125.549
  0
LINE
  8
0
 10
-121.714
 20
125.549
 11
-121.638
 21
125.363
  0
LINE
  8
0
 10
-121.638
 20
125.363
 11
-121.585
 21
125.169
  0
LINE
  8
0
 10
-121.585
 20
125.169
 11
-121.557
 21
124.97
  0
LINE
  8
0
 10
-121.557
 20
124.97
 11
-121.554
 21
124.769
  0
LINE
  8
0
 10
-121.554
 20
124.769
 11
-121.577
 21
124.57
  0
LINE
  8
0
 10
-121.577
 20
124.57
 11
-121.624
 21
124.374
  0
LINE
  8
0
 10
-121.624
 20
124.374
 11
-121.695
 21
124.187
  0
LINE
  8
0
 10
-121.695
 20
124.187
 11
-121.79
 21
124.009
  0
LINE
  8
0
 10
-121.79
 20
124.009
 11
-121.906
 21
123.845
  0
LINE
  8
0
 10
-121.906
 20
123.845
 11
-122.041
 21
123.697
  0
LINE
  8
0
 10
-122.041
 20
123.697
 11
-122.194
 21
123.566
  0
LINE
  8
0
 10
-122.194
 20
123.566
 11
-122.362
 21
123.456
  0
LINE
  8
0
 10
-122.362
 20
123.456
 11
-122.543
 21
123.368
  0
LINE
  8
0
 10
-122.543
 20
123.368
 11
-122.733
 21
123.304
  0
LINE
  8
0
 10
-122.733
 20
123.304
 11
-122.93
 21
123.263
  0
LINE
  8
0
 10
-122.93
 20
123.263
 11
-123.13
 21
123.248
  0
LINE
  8
0
 10
-123.13
 20
123.248
 11
-123.331
 21
123.258
  0
LINE
  8
0
 10
-120.435
 20
103.707
 11
-120.262
 21
104.688
  0
LINE
  8
0
 10
-120.262
 20
104.688
 11
-121.063
 21
104.829
  0
LINE
  8
0
 10
-121.063
 20
104.829
 11
-120.455
 21
108.276
  0
LINE
  8
0
 10
-120.455
 20
108.276
 11
-119.654
 21
108.135
  0
LINE
  8
0
 10
-119.654
 20
108.135
 11
-118.785
 21
113.067
  0
LINE
  8
0
 10
-118.785
 20
113.067
 11
-119.585
 21
113.209
  0
LINE
  8
0
 10
-119.585
 20
113.209
 11
-118.977
 21
116.656
  0
LINE
  8
0
 10
-118.977
 20
116.656
 11
-118.177
 21
116.514
  0
LINE
  8
0
 10
-118.177
 20
116.514
 11
-118.004
 21
117.495
  0
LINE
  8
0
 10
-118.004
 20
117.495
 11
-104.217
 21
115.064
  0
LINE
  8
0
 10
-104.217
 20
115.064
 11
-104.39
 21
114.083
  0
LINE
  8
0
 10
-104.39
 20
114.083
 11
-103.589
 21
113.942
  0
LINE
  8
0
 10
-103.589
 20
113.942
 11
-104.197
 21
110.495
  0
LINE
  8
0
 10
-104.197
 20
110.495
 11
-104.997
 21
110.636
  0
LINE
  8
0
 10
-104.997
 20
110.636
 11
-105.867
 21
105.704
  0
LINE
  8
0
 10
-105.867
 20
105.704
 11
-105.067
 21
105.562
  0
LINE
  8
0
 10
-105.067
 20
105.562
 11
-105.674
 21
102.116
  0
LINE
  8
0
 10
-105.674
 20
102.116
 11
-106.475
 21
102.257
  0
LINE
  8
0
 10
-106.475
 20
102.257
 11
-106.648
 21
101.276
  0
LINE
  8
0
 10
-106.648
 20
101.276
 11
-120.435
 21
103.707
  0
LINE
  8
0
 10
106.475
 20
102.257
 11
105.674
 21
102.116
  0
LINE
  8
0
 10
105.674
 20
102.116
 11
105.067
 21
105.562
  0
LINE
  8
0
 10
105.067
 20
105.562
 11
105.867
 21
105.704
  0
LINE
  8
0
 10
105.867
 20
105.704
 11
104.997
 21
110.636
  0
LINE
  8
0
 10
104.997
 20
110.636
 11
104.197
 21
110.495
  0
LINE
  8
0
 10
104.197
 20
110.495
 11
103.589
 21
113.942
  0
LINE
  8
0
 10
103.589
 20
113.942
 11
104.39
 21
114.083
  0
LINE
  8
0
 10
104.39
 20
114.083
 11
104.217
 21
115.064
  0
LINE
  8
0
 10
104.217
 20
115.064
 11
118.004
 21
117.495
  0
LINE
  8
0
 10
118.004
 20
117.495
 11
118.177
 21
116.514
  0
LINE
  8
0
 10
118.177
 20
116.514
 11
118.977
 21
116.656
  0
LINE
  8
0
 10
118.977
 20
116.656
 11
119.585
 21
113.209
  0
LINE
  8
0
 10
119.585
 20
113.209
 11
118.785
 21
113.067
  0
LINE
  8
0
 10
118.785
 20
113.067
 11
119.654
 21
108.135
  0
LINE
  8
0
 10
119.654
 20
108.135
 11
120.455
 21
108.276
  0
LINE
  8
0
 10
120.455
 20
108.276
 11
121.063
 21
104.829
  0
LINE
  8
0
 10
121.063
 20
104.829
 11
120.262
 21
104.688
  0
LINE
  8
0
 10
120.262
 20
104.688
 11
120.435
 21
103.707
  0
LINE
  8
0
 10
120.435
 20
103.707
 11
106.648
 21
101.276
  0
LINE
  8
0
 10
106.648
 20
101.276
 11
106.475
 21
102.257
  0
LINE
  8
0
 10
-62.7641
 20
101.662
 11
-62.5912
 21
102.642
  0
LINE
  8
0
 10
-62.5912
 20
102.642
 11
-63.3917
 21
102.783
  0
LINE
  8
0
 10
-63.3917
 20
102.783
 11
-62.7839
 21
106.23
  0
LINE
  8
0
 10
-62.7839
 20
106.23
 11
-61.9835
 21
106.089
  0
LINE
  8
0
 10
-61.9835
 20
106.089
 11
-61.1137
 21
111.022
  0
LINE
  8
0
 10
-61.1137
 20
111.022
 11
-61.9141
 21
111.163
  0
LINE
  8
0
 10
-61.9141
 20
111.163
 11
-61.3063
 21
114.61
  0
LINE
  8
0
 10
-61.3063
 20
114.61
 11
-60.5059
 21
114.469
  0
LINE
  8
0
 10
-60.5059
 20
114.469
 11
-60.333
 21
115.449
  0
LINE
  8
0
 10
-60.333
 20
115.449
 11
-46.5457
 21
113.018
  0
LINE
  8
0
 10
-46.5457
 20
113.018
 11
-46.7186
 21
112.038
  0
LINE
  8
0
 10
-46.7186
 20
112.038
 11
-45.9181
 21
111.897
  0
LINE
  8
0
 10
-45.9181
 20
111.897
 11
-46.5259
 21
108.45
  0
LINE
  8
0
 10
-46.5259
 20
108.45
 11
-47.3264
 21
108.591
  0
LINE
  8
0
 10
-47.3264
 20
108.591
 11
-48.1962
 21
103.658
  0
LINE
  8
0
 10
-48.1962
 20
103.658
 11
-47.3957
 21
103.517
  0
LINE
  8
0
 10
-47.3957
 20
103.517
 11
-48.0035
 21
100.07
  0
LINE
  8
0
 10
-48.0035
 20
100.07
 11
-48.8039
 21
100.211
  0
LINE
  8
0
 10
-48.8039
 20
100.211
 11
-48.9768
 21
99.2308
  0
LINE
  8
0
 10
-48.9768
 20
99.2308
 11
-62.7641
 21
101.662
  0
LINE
  8
0
 10
48.8039
 20
100.211
 11
48.0035
 21
100.07
  0
LINE
  8
0
 10
48.0035
 20
100.07
 11
47.3957
 21
103.517
  0
LINE
  8
0
 10
47.3957
 20
103.517
 11
48.1962
 21
103.658
  0
LINE
  8
0
 10
48.1962
 20
103.658
 11
47.3264
 21
108.591
  0
LINE
  8
0
 10
47.3264
 20
108.591
 11
46.5259
 21
108.45
  0
LINE
  8
0
 10
46.5259
 20
108.45
 11
45.9181
 21
111.897
  0
LINE
  8
0
 10
45.9181
 20
111.897
 11
46.7186
 21
112.038
  0
LINE
  8
0
 10
46.7186
 20
112.038
 11
46.5457
 21
113.018
  0
LINE
  8
0
 10
46.5457
 20
113.018
 11
60.333
 21
115.449
  0
LINE
  8
0
 10
60.333
 20
115.449
 11
60.5059
 21
114.469
  0
LINE
  8
0
 10
60.5059
 20
114.469
 11
61.3063
 21
114.61
  0
LINE
  8
0
 10
61.3063
 20
114.61
 11
61.9141
 21
111.163
  0
LINE
  8
0
 10
61.9141
 20
111.163
 11
61.1137
 21
111.022
  0
LINE
  8
0
 10
61.1137
 20
111.022
 11
61.9835
 21
106.089
  0
LINE
  8
0
 10
61.9835
 20
106.089
 11
62.7839
 21
106.23
  0
LINE
  8
0
 10
62.7839
 20
106.23
 11
63.3917
 21
102.783
  0
LINE
  8
0
 10
63.3917
 20
102.783
 11
62.5912
 21
102.642
  0
LINE
  8
0
 10
62.5912
 20
102.642
 11
62.7641
 21
101.662
  0
LINE
  8
0
 10
62.7641
 20
101.662
 11
48.9768
 21
99.2308
  0
LINE
  8
0
 10
48.9768
 20
99.2308
 11
48.8039
 21
100.211
  0
LINE
  8
0
 10
-101.674
 20
100.399
 11
-101.502
 21
101.38
  0
LINE
  8
0
 10
-101.502
 20
101.38
 11
-102.302
 21
101.521
  0
LINE
  8
0
 10
-102.302
 20
101.521
 11
-101.694
 21
104.968
  0
LINE
  8
0
 10
-101.694
 20
104.968
 11
-100.894
 21
104.827
  0
LINE
  8
0
 10
-100.894
 20
104.827
 11
-100.024
 21
109.759
  0
LINE
  8
0
 10
-100.024
 20
109.759
 11
-100.824
 21
109.901
  0
LINE
  8
0
 10
-100.824
 20
109.901
 11
-100.217
 21
113.348
  0
LINE
  8
0
 10
-100.217
 20
113.348
 11
-99.4163
 21
113.206
  0
LINE
  8
0
 10
-99.4163
 20
113.206
 11
-99.2434
 21
114.187
  0
LINE
  8
0
 10
-99.2434
 20
114.187
 11
-85.4561
 21
111.756
  0
LINE
  8
0
 10
-85.4561
 20
111.756
 11
-85.629
 21
110.775
  0
LINE
  8
0
 10
-85.629
 20
110.775
 11
-84.8285
 21
110.634
  0
LINE
  8
0
 10
-84.8285
 20
110.634
 11
-85.4363
 21
107.187
  0
LINE
  8
0
 10
-85.4363
 20
107.187
 11
-86.2367
 21
107.328
  0
LINE
  8
0
 10
-86.2367
 20
107.328
 11
-87.1065
 21
102.396
  0
LINE
  8
0
 10
-87.1065
 20
102.396
 11
-86.3061
 21
102.254
  0
LINE
  8
0
 10
-86.3061
 20
102.254
 11
-86.9139
 21
98.8075
  0
LINE
  8
0
 10
-86.9139
 20
98.8075
 11
-87.7143
 21
98.9487
  0
LINE
  8
0
 10
-87.7143
 20
98.9487
 11
-87.8872
 21
97.9683
  0
LINE
  8
0
 10
-87.8872
 20
97.9683
 11
-101.674
 21
100.399
  0
LINE
  8
0
 10
87.7143
 20
98.9487
 11
86.9139
 21
98.8075
  0
LINE
  8
0
 10
86.9139
 20
98.8075
 11
86.3061
 21
102.254
  0
LINE
  8
0
 10
86.3061
 20
102.254
 11
87.1065
 21
102.396
  0
LINE
  8
0
 10
87.1065
 20
102.396
 11
86.2367
 21
107.328
  0
LINE
  8
0
 10
86.2367
 20
107.328
 11
85.4363
 21
107.187
  0
LINE
  8
0
 10
85.4363
 20
107.187
 11
84.8285
 21
110.634
  0
LINE
  8
0
 10
84.8285
 20
110.634
 11
85.629
 21
110.775
  0
LINE
  8
0
 10
85.629
 20
110.775
 11
85.4561
 21
111.756
  0
LINE
  8
0
 10
85.4561
 20
111.756
 11
99.2434
 21
114.187
  0
LINE
  8
0
 10
99.2434
 20
114.187
 11
99.4163
 21
113.206
  0
LINE
  8
0
 10
99.4163
 20
113.206
 11
100.217
 21
113.348
  0
LINE
  8
0
 10
100.217
 20
113.348
 11
100.824
 21
109.901
  0
LINE
  8
0
 10
100.824
 20
109.901
 11
100.024
 21
109.759
  0
LINE
  8
0
 10
100.024
 20
109.759
 11
100.894
 21
104.827
  0
LINE
  8
0
 10
100.894
 20
104.827
 11
101.694
 21
104.968
  0
LINE
  8
0
 10
101.694
 20
104.968
 11
102.302
 21
101.521
  0
LINE
  8
0
 10
102.302
 20
101.521
 11
101.502
 21
101.38
  0
LINE
  8
0
 10
101.502
 20
101.38
 11
101.674
 21
100.399
  0
LINE
  8
0
 10
101.674
 20
100.399
 11
87.8872
 21
97.9683
  0
LINE
  8
0
 10
87.8872
 20
97.9683
 11
87.7143
 21
98.9487
  0
LINE
  8
0
 10
-82.3929
 20
100.046
 11
-82.2201
 21
101.026
  0
LINE
  8
0
 10
-82.2201
 20
101.026
 11
-83.0205
 21
101.167
  0
LINE
  8
0
 10
-83.0205
 20
101.167
 11
-82.4127
 21
104.614
  0
LINE
  8
0
 10
-82.4127
 20
104.614
 11
-81.6123
 21
104.473
  0
LINE
  8
0
 10
-81.6123
 20
104.473
 11
-80.7425
 21
109.406
  0
LINE
  8
0
 10
-80.7425
 20
109.406
 11
-81.543
 21
109.547
  0
LINE
  8
0
 10
-81.543
 20
109.547
 11
-80.9352
 21
112.994
  0
LINE
  8
0
 10
-80.9352
 20
112.994
 11
-80.1347
 21
112.853
  0
LINE
  8
0
 10
-80.1347
 20
112.853
 11
-79.9619
 21
113.833
  0
LINE
  8
0
 10
-79.9619
 20
113.833
 11
-66.1746
 21
111.402
  0
LINE
  8
0
 10
-66.1746
 20
111.402
 11
-66.3474
 21
110.422
  0
LINE
  8
0
 10
-66.3474
 20
110.422
 11
-65.547
 21
110.281
  0
LINE
  8
0
 10
-65.547
 20
110.281
 11
-66.1548
 21
106.834
  0
LINE
  8
0
 10
-66.1548
 20
106.834
 11
-66.9552
 21
106.975
  0
LINE
  8
0
 10
-66.9552
 20
106.975
 11
-67.825
 21
102.042
  0
LINE
  8
0
 10
-67.825
 20
102.042
 11
-67.0245
 21
101.901
  0
LINE
  8
0
 10
-67.0245
 20
101.901
 11
-67.6323
 21
98.4539
  0
LINE
  8
0
 10
-67.6323
 20
98.4539
 11
-68.4328
 21
98.5951
  0
LINE
  8
0
 10
-68.4328
 20
98.5951
 11
-68.6056
 21
97.6147
  0
LINE
  8
0
 10
-68.6056
 20
97.6147
 11
-82.3929
 21
100.046
  0
LINE
  8
0
 10
68.4328
 20
98.5951
 11
67.6323
 21
98.4539
  0
LINE
  8
0
 10
67.6323
 20
98.4539
 11
67.0245
 21
101.901
  0
LINE
  8
0
 10
67.0245
 20
101.901
 11
67.825
 21
102.042
  0
LINE
  8
0
 10
67.825
 20
102.042
 11
66.9552
 21
106.975
  0
LINE
  8
0
 10
66.9552
 20
106.975
 11
66.1548
 21
106.834
  0
LINE
  8
0
 10
66.1548
 20
106.834
 11
65.547
 21
110.281
  0
LINE
  8
0
 10
65.547
 20
110.281
 11
66.3474
 21
110.422
  0
LINE
  8
0
 10
66.3474
 20
110.422
 11
66.1746
 21
111.402
  0
LINE
  8
0
 10
66.1746
 20
111.402
 11
79.9619
 21
113.833
  0
LINE
  8
0
 10
79.9619
 20
113.833
 11
80.1347
 21
112.853
  0
LINE
  8
0
 10
80.1347
 20
112.853
 11
80.9352
 21
112.994
  0
LINE
  8
0
 10
80.9352
 20
112.994
 11
81.543
 21
109.547
  0
LINE
  8
0
 10
81.543
 20
109.547
 11
80.7425
 21
109.406
  0
LINE
  8
0
 10
80.7425
 20
109.406
 11
81.6123
 21
104.473
  0
LINE
  8
0
 10
81.6123
 20
104.473
 11
82.4127
 21
104.614
  0
LINE
  8
0
 10
82.4127
 20
104.614
 11
83.0205
 21
101.167
  0
LINE
  8
0
 10
83.0205
 20
101.167
 11
82.2201
 21
101.026
  0
LINE
  8
0
 10
82.2201
 20
101.026
 11
82.3929
 21
100.046
  0
LINE
  8
0
 10
82.3929
 20
100.046
 11
68.6056
 21
97.6147
  0
LINE
  8
0
 10
68.6056
 20
97.6147
 11
68.4328
 21
98.5951
  0
LINE
  8
0
 10
-45.0454
 20
92.445
 11
-44.8726
 21
93.4253
  0
LINE
  8
0
 10
-44.8726
 20
93.4253
 11
-45.673
 21
93.5665
  0
LINE
  8
0
 10
-45.673
 20
93.5665
 11
-45.0652
 21
97.0134
  0
LINE
  8
0
 10
-45.0652
 20
97.0134
 11
-44.2648
 21
96.8723
  0
LINE
  8
0
 10
-44.2648
 20
96.8723
 11
-43.395
 21
101.805
  0
LINE
  8
0
 10
-43.395
 20
101.805
 11
-44.1954
 21
101.946
  0
LINE
  8
0
 10
-44.1954
 20
101.946
 11
-43.5876
 21
105.393
  0
LINE
  8
0
 10
-43.5876
 20
105.393
 11
-42.7872
 21
105.252
  0
LINE
  8
0
 10
-42.7872
 20
105.252
 11
-42.6143
 21
106.232
  0
LINE
  8
0
 10
-42.6143
 20
106.232
 11
-28.827
 21
103.801
  0
LINE
  8
0
 10
-28.827
 20
103.801
 11
-28.9999
 21
102.821
  0
LINE
  8
0
 10
-28.9999
 20
102.821
 11
-28.1994
 21
102.68
  0
LINE
  8
0
 10
-28.1994
 20
102.68
 11
-28.8072
 21
99.2328
  0
LINE
  8
0
 10
-28.8072
 20
99.2328
 11
-29.6077
 21
99.374
  0
LINE
  8
0
 10
-29.6077
 20
99.374
 11
-30.4775
 21
94.4412
  0
LINE
  8
0
 10
-30.4775
 20
94.4412
 11
-29.677
 21
94.3001
  0
LINE
  8
0
 10
-29.677
 20
94.3001
 11
-30.2848
 21
90.8531
  0
LINE
  8
0
 10
-30.2848
 20
90.8531
 11
-31.0853
 21
90.9943
  0
LINE
  8
0
 10
-31.0853
 20
90.9943
 11
-31.2581
 21
90.0139
  0
LINE
  8
0
 10
-31.2581
 20
90.0139
 11
-45.0454
 21
92.445
  0
LINE
  8
0
 10
31.0853
 20
90.9943
 11
30.2848
 21
90.8531
  0
LINE
  8
0
 10
30.2848
 20
90.8531
 11
29.677
 21
94.3001
  0
LINE
  8
0
 10
29.677
 20
94.3001
 11
30.4775
 21
94.4412
  0
LINE
  8
0
 10
30.4775
 20
94.4412
 11
29.6077
 21
99.374
  0
LINE
  8
0
 10
29.6077
 20
99.374
 11
28.8072
 21
99.2328
  0
LINE
  8
0
 10
28.8072
 20
99.2328
 11
28.1994
 21
102.68
  0
LINE
  8
0
 10
28.1994
 20
102.68
 11
28.9999
 21
102.821
  0
LINE
  8
0
 10
28.9999
 20
102.821
 11
28.827
 21
103.801
  0
LINE
  8
0
 10
28.827
 20
103.801
 11
42.6143
 21
106.232
  0
LINE
  8
0
 10
42.6143
 20
106.232
 11
42.7872
 21
105.252
  0
LINE
  8
0
 10
42.7872
 20
105.252
 11
43.5876
 21
105.393
  0
LINE
  8
0
 10
43.5876
 20
105.393
 11
44.1954
 21
101.946
  0
LINE
  8
0
 10
44.1954
 20
101.946
 11
43.395
 21
101.805
  0
LINE
  8
0
 10
43.395
 20
101.805
 11
44.2648
 21
96.8723
  0
LINE
  8
0
 10
44.2648
 20
96.8723
 11
45.0652
 21
97.0134
  0
LINE
  8
0
 10
45.0652
 20
97.0134
 11
45.673
 21
93.5665
  0
LINE
  8
0
 10
45.673
 20
93.5665
 11
44.8726
 21
93.4253
  0
LINE
  8
0
 10
44.8726
 20
93.4253
 11
45.0454
 21
92.445
  0
LINE
  8
0
 10
45.0454
 20
92.445
 11
31.2581
 21
90.0139
  0
LINE
  8
0
 10
31.2581
 20
90.0139
 11
31.0853
 21
90.9943
  0
LINE
  8
0
 10
-123.743
 20
84.9468
 11
-123.57
 21
85.9271
  0
LINE
  8
0
 10
-123.57
 20
85.9271
 11
-124.371
 21
86.0683
  0
LINE
  8
0
 10
-124.371
 20
86.0683
 11
-123.763
 21
89.5152
  0
LINE
  8
0
 10
-123.763
 20
89.5152
 11
-122.962
 21
89.3741
  0
LINE
  8
0
 10
-122.962
 20
89.3741
 11
-122.093
 21
94.3069
  0
LINE
  8
0
 10
-122.093
 20
94.3069
 11
-122.893
 21
94.448
  0
LINE
  8
0
 10
-122.893
 20
94.448
 11
-122.285
 21
97.8949
  0
LINE
  8
0
 10
-122.285
 20
97.8949
 11
-121.485
 21
97.7538
  0
LINE
  8
0
 10
-121.485
 20
97.7538
 11
-121.312
 21
98.7341
  0
LINE
  8
0
 10
-121.312
 20
98.7341
 11
-107.525
 21
96.303
  0
LINE
  8
0
 10
-107.525
 20
96.303
 11
-107.698
 21
95.3227
  0
LINE
  8
0
 10
-107.698
 20
95.3227
 11
-106.897
 21
95.1816
  0
LINE
  8
0
 10
-106.897
 20
95.1816
 11
-107.505
 21
91.7346
  0
LINE
  8
0
 10
-107.505
 20
91.7346
 11
-108.305
 21
91.8758
  0
LINE
  8
0
 10
-108.305
 20
91.8758
 11
-109.175
 21
86.943
  0
LINE
  8
0
 10
-109.175
 20
86.943
 11
-108.375
 21
86.8018
  0
LINE
  8
0
 10
-108.375
 20
86.8018
 11
-108.982
 21
83.3549
  0
LINE
  8
0
 10
-108.982
 20
83.3549
 11
-109.783
 21
83.496
  0
LINE
  8
0
 10
-109.783
 20
83.496
 11
-109.956
 21
82.5157
  0
LINE
  8
0
 10
-109.956
 20
82.5157
 11
-123.743
 21
84.9468
  0
LINE
  8
0
 10
109.783
 20
83.496
 11
108.982
 21
83.3549
  0
LINE
  8
0
 10
108.982
 20
83.3549
 11
108.375
 21
86.8018
  0
LINE
  8
0
 10
108.375
 20
86.8018
 11
109.175
 21
86.943
  0
LINE
  8
0
 10
109.175
 20
86.943
 11
108.305
 21
91.8758
  0
LINE
  8
0
 10
108.305
 20
91.8758
 11
107.505
 21
91.7346
  0
LINE
  8
0
 10
107.505
 20
91.7346
 11
106.897
 21
95.1816
  0
LINE
  8
0
 10
106.897
 20
95.1816
 11
107.698
 21
95.3227
  0
LINE
  8
0
 10
107.698
 20
95.3227
 11
107.525
 21
96.303
  0
LINE
  8
0
 10
107.525
 20
96.303
 11
121.312
 21
98.7341
  0
LINE
  8
0
 10
121.312
 20
98.7341
 11
121.485
 21
97.7538
  0
LINE
  8
0
 10
121.485
 20
97.7538
 11
122.285
 21
97.8949
  0
LINE
  8
0
 10
122.285
 20
97.8949
 11
122.893
 21
94.448
  0
LINE
  8
0
 10
122.893
 20
94.448
 11
122.093
 21
94.3069
  0
LINE
  8
0
 10
122.093
 20
94.3069
 11
122.962
 21
89.3741
  0
LINE
  8
0
 10
122.962
 20
89.3741
 11
123.763
 21
89.5152
  0
LINE
  8
0
 10
123.763
 20
89.5152
 11
124.371
 21
86.0683
  0
LINE
  8
0
 10
124.371
 20
86.0683
 11
123.57
 21
85.9271
  0
LINE
  8
0
 10
123.57
 20
85.9271
 11
123.743
 21
84.9468
  0
LINE
  8
0
 10
123.743
 20
84.9468
 11
109.956
 21
82.5157
  0
LINE
  8
0
 10
109.956
 20
82.5157
 11
109.783
 21
83.496
  0
LINE
  8
0
 10
13.1929
 20
82.7622
 11
12.3925
 21
82.6211
  0
LINE
  8
0
 10
12.3925
 20
82.6211
 11
11.7847
 21
86.068
  0
LINE
  8
0
 10
11.7847
 20
86.068
 11
12.5851
 21
86.2092
  0
LINE
  8
0
 10
12.5851
 20
86.2092
 11
11.7153
 21
91.142
  0
LINE
  8
0
 10
11.7153
 20
91.142
 11
10.9149
 21
91.0008
  0
LINE
  8
0
 10
10.9149
 20
91.0008
 11
10.3071
 21
94.4477
  0
LINE
  8
0
 10
10.3071
 20
94.4477
 11
11.1075
 21
94.5889
  0
LINE
  8
0
 10
11.1075
 20
94.5889
 11
10.9347
 21
95.5692
  0
LINE
  8
0
 10
10.9347
 20
95.5692
 11
24.722
 21
98.0003
  0
LINE
  8
0
 10
24.722
 20
98.0003
 11
24.8949
 21
97.02
  0
LINE
  8
0
 10
24.8949
 20
97.02
 11
25.6953
 21
97.1611
  0
LINE
  8
0
 10
25.6953
 20
97.1611
 11
26.3031
 21
93.7142
  0
LINE
  8
0
 10
26.3031
 20
93.7142
 11
25.5026
 21
93.573
  0
LINE
  8
0
 10
25.5026
 20
93.573
 11
26.3724
 21
88.6402
  0
LINE
  8
0
 10
26.3724
 20
88.6402
 11
27.1729
 21
88.7814
  0
LINE
  8
0
 10
27.1729
 20
88.7814
 11
27.7807
 21
85.3344
  0
LINE
  8
0
 10
27.7807
 20
85.3344
 11
26.9802
 21
85.1933
  0
LINE
  8
0
 10
26.9802
 20
85.1933
 11
27.1531
 21
84.213
  0
LINE
  8
0
 10
27.1531
 20
84.213
 11
13.3658
 21
81.7819
  0
LINE
  8
0
 10
13.3658
 20
81.7819
 11
13.1929
 21
82.7622
  0
LINE
  8
0
 10
-27.1531
 20
84.213
 11
-26.9802
 21
85.1933
  0
LINE
  8
0
 10
-26.9802
 20
85.1933
 11
-27.7807
 21
85.3344
  0
LINE
  8
0
 10
-27.7807
 20
85.3344
 11
-27.1729
 21
88.7814
  0
LINE
  8
0
 10
-27.1729
 20
88.7814
 11
-26.3724
 21
88.6402
  0
LINE
  8
0
 10
-26.3724
 20
88.6402
 11
-25.5026
 21
93.573
  0
LINE
  8
0
 10
-25.5026
 20
93.573
 11
-26.3031
 21
93.7142
  0
LINE
  8
0
 10
-26.3031
 20
93.7142
 11
-25.6953
 21
97.1611
  0
LINE
  8
0
 10
-25.6953
 20
97.1611
 11
-24.8949
 21
97.02
  0
LINE
  8
0
 10
-24.8949
 20
97.02
 11
-24.722
 21
98.0003
  0
LINE
  8
0
 10
-24.722
 20
98.0003
 11
-10.9347
 21
95.5692
  0
LINE
  8
0
 10
-10.9347
 20
95.5692
 11
-11.1075
 21
94.5889
  0
LINE
  8
0
 10
-11.1075
 20
94.5889
 11
-10.3071
 21
94.4477
  0
LINE
  8
0
 10
-10.3071
 20
94.4477
 11
-10.9149
 21
91.0008
  0
LINE
  8
0
 10
-10.9149
 20
91.0008
 11
-11.7153
 21
91.142
  0
LINE
  8
0
 10
-11.7153
 20
91.142
 11
-12.5851
 21
86.2092
  0
LINE
  8
0
 10
-12.5851
 20
86.2092
 11
-11.7847
 21
86.068
  0
LINE
  8
0
 10
-11.7847
 20
86.068
 11
-12.3925
 21
82.6211
  0
LINE
  8
0
 10
-12.3925
 20
82.6211
 11
-13.1929
 21
82.7622
  0
LINE
  8
0
 10
-13.1929
 20
82.7622
 11
-13.3658
 21
81.7819
  0
LINE
  8
0
 10
-13.3658
 20
81.7819
 11
-27.1531
 21
84.213
  0
LINE
  8
0
 10
-66.0721
 20
82.9013
 11
-65.8992
 21
83.8816
  0
LINE
  8
0
 10
-65.8992
 20
83.8816
 11
-66.6997
 21
84.0227
  0
LINE
  8
0
 10
-66.6997
 20
84.0227
 11
-66.0919
 21
87.4697
  0
LINE
  8
0
 10
-66.0919
 20
87.4697
 11
-65.2915
 21
87.3285
  0
LINE
  8
0
 10
-65.2915
 20
87.3285
 11
-64.4217
 21
92.2613
  0
LINE
  8
0
 10
-64.4217
 20
92.2613
 11
-65.2221
 21
92.4025
  0
LINE
  8
0
 10
-65.2221
 20
92.4025
 11
-64.6143
 21
95.8494
  0
LINE
  8
0
 10
-64.6143
 20
95.8494
 11
-63.8139
 21
95.7083
  0
LINE
  8
0
 10
-63.8139
 20
95.7083
 11
-63.641
 21
96.6886
  0
LINE
  8
0
 10
-63.641
 20
96.6886
 11
-49.8537
 21
94.2575
  0
LINE
  8
0
 10
-49.8537
 20
94.2575
 11
-50.0266
 21
93.2772
  0
LINE
  8
0
 10
-50.0266
 20
93.2772
 11
-49.2261
 21
93.136
  0
LINE
  8
0
 10
-49.2261
 20
93.136
 11
-49.8339
 21
89.6891
  0
LINE
  8
0
 10
-49.8339
 20
89.6891
 11
-50.6344
 21
89.8302
  0
LINE
  8
0
 10
-50.6344
 20
89.8302
 11
-51.5042
 21
84.8975
  0
LINE
  8
0
 10
-51.5042
 20
84.8975
 11
-50.7037
 21
84.7563
  0
LINE
  8
0
 10
-50.7037
 20
84.7563
 11
-51.3115
 21
81.3094
  0
LINE
  8
0
 10
-51.3115
 20
81.3094
 11
-52.1119
 21
81.4505
  0
LINE
  8
0
 10
-52.1119
 20
81.4505
 11
-52.2848
 21
80.4702
  0
LINE
  8
0
 10
-52.2848
 20
80.4702
 11
-66.0721
 21
82.9013
  0
LINE
  8
0
 10
52.1119
 20
81.4505
 11
51.3115
 21
81.3094
  0
LINE
  8
0
 10
51.3115
 20
81.3094
 11
50.7037
 21
84.7563
  0
LINE
  8
0
 10
50.7037
 20
84.7563
 11
51.5042
 21
84.8975
  0
LINE
  8
0
 10
51.5042
 20
84.8975
 11
50.6344
 21
89.8302
  0
LINE
  8
0
 10
50.6344
 20
89.8302
 11
49.8339
 21
89.6891
  0
LINE
  8
0
 10
49.8339
 20
89.6891
 11
49.2261
 21
93.136
  0
LINE
  8
0
 10
49.2261
 20
93.136
 11
50.0266
 21
93.2772
  0
LINE
  8
0
 10
50.0266
 20
93.2772
 11
49.8537
 21
94.2575
  0
LINE
  8
0
 10
49.8537
 20
94.2575
 11
63.641
 21
96.6886
  0
LINE
  8
0
 10
63.641
 20
96.6886
 11
63.8139
 21
95.7083
  0
LINE
  8
0
 10
63.8139
 20
95.7083
 11
64.6143
 21
95.8494
  0
LINE
  8
0
 10
64.6143
 20
95.8494
 11
65.2221
 21
92.4025
  0
LINE
  8
0
 10
65.2221
 20
92.4025
 11
64.4217
 21
92.2613
  0
LINE
  8
0
 10
64.4217
 20
92.2613
 11
65.2915
 21
87.3285
  0
LINE
  8
0
 10
65.2915
 20
87.3285
 11
66.0919
 21
87.4697
  0
LINE
  8
0
 10
66.0919
 20
87.4697
 11
66.6997
 21
84.0227
  0
LINE
  8
0
 10
66.6997
 20
84.0227
 11
65.8992
 21
83.8816
  0
LINE
  8
0
 10
65.8992
 20
83.8816
 11
66.0721
 21
82.9013
  0
LINE
  8
0
 10
66.0721
 20
82.9013
 11
52.2848
 21
80.4702
  0
LINE
  8
0
 10
52.2848
 20
80.4702
 11
52.1119
 21
81.4505
  0
LINE
  8
0
 10
91.0223
 20
80.1881
 11
90.2219
 21
80.0469
  0
LINE
  8
0
 10
90.2219
 20
80.0469
 11
89.6141
 21
83.4939
  0
LINE
  8
0
 10
89.6141
 20
83.4939
 11
90.4145
 21
83.635
  0
LINE
  8
0
 10
90.4145
 20
83.635
 11
89.5447
 21
88.5678
  0
LINE
  8
0
 10
89.5447
 20
88.5678
 11
88.7443
 21
88.4266
  0
LINE
  8
0
 10
88.7443
 20
88.4266
 11
88.1365
 21
91.8736
  0
LINE
  8
0
 10
88.1365
 20
91.8736
 11
88.937
 21
92.0147
  0
LINE
  8
0
 10
88.937
 20
92.0147
 11
88.7641
 21
92.995
  0
LINE
  8
0
 10
88.7641
 20
92.995
 11
102.551
 21
95.4261
  0
LINE
  8
0
 10
102.551
 20
95.4261
 11
102.724
 21
94.4458
  0
LINE
  8
0
 10
102.724
 20
94.4458
 11
103.525
 21
94.5869
  0
LINE
  8
0
 10
103.525
 20
94.5869
 11
104.132
 21
91.14
  0
LINE
  8
0
 10
104.132
 20
91.14
 11
103.332
 21
90.9989
  0
LINE
  8
0
 10
103.332
 20
90.9989
 11
104.202
 21
86.0661
  0
LINE
  8
0
 10
104.202
 20
86.0661
 11
105.002
 21
86.2072
  0
LINE
  8
0
 10
105.002
 20
86.2072
 11
105.61
 21
82.7603
  0
LINE
  8
0
 10
105.61
 20
82.7603
 11
104.81
 21
82.6191
  0
LINE
  8
0
 10
104.81
 20
82.6191
 11
104.982
 21
81.6388
  0
LINE
  8
0
 10
104.982
 20
81.6388
 11
91.1952
 21
79.2077
  0
LINE
  8
0
 10
91.1952
 20
79.2077
 11
91.0223
 21
80.1881
  0
LINE
  8
0
 10
-104.982
 20
81.6388
 11
-104.81
 21
82.6191
  0
LINE
  8
0
 10
-104.81
 20
82.6191
 11
-105.61
 21
82.7603
  0
LINE
  8
0
 10
-105.61
 20
82.7603
 11
-105.002
 21
86.2072
  0
LINE
  8
0
 10
-105.002
 20
86.2072
 11
-104.202
 21
86.0661
  0
LINE
  8
0
 10
-104.202
 20
86.0661
 11
-103.332
 21
90.9989
  0
LINE
  8
0
 10
-103.332
 20
90.9989
 11
-104.132
 21
91.14
  0
LINE
  8
0
 10
-104.132
 20
91.14
 11
-103.525
 21
94.5869
  0
LINE
  8
0
 10
-103.525
 20
94.5869
 11
-102.724
 21
94.4458
  0
LINE
  8
0
 10
-102.724
 20
94.4458
 11
-102.551
 21
95.4261
  0
LINE
  8
0
 10
-102.551
 20
95.4261
 11
-88.7641
 21
92.995
  0
LINE
  8
0
 10
-88.7641
 20
92.995
 11
-88.937
 21
92.0147
  0
LINE
  8
0
 10
-88.937
 20
92.0147
 11
-88.1365
 21
91.8736
  0
LINE
  8
0
 10
-88.1365
 20
91.8736
 11
-88.7443
 21
88.4266
  0
LINE
  8
0
 10
-88.7443
 20
88.4266
 11
-89.5447
 21
88.5678
  0
LINE
  8
0
 10
-89.5447
 20
88.5678
 11
-90.4145
 21
83.635
  0
LINE
  8
0
 10
-90.4145
 20
83.635
 11
-89.6141
 21
83.4939
  0
LINE
  8
0
 10
-89.6141
 20
83.4939
 11
-90.2219
 21
80.0469
  0
LINE
  8
0
 10
-90.2219
 20
80.0469
 11
-91.0223
 21
80.1881
  0
LINE
  8
0
 10
-91.0223
 20
80.1881
 11
-91.1952
 21
79.2077
  0
LINE
  8
0
 10
-91.1952
 20
79.2077
 11
-104.982
 21
81.6388
  0
LINE
  8
0
 10
-85.7009
 20
81.2852
 11
-85.5281
 21
82.2656
  0
LINE
  8
0
 10
-85.5281
 20
82.2656
 11
-86.3285
 21
82.4067
  0
LINE
  8
0
 10
-86.3285
 20
82.4067
 11
-85.7207
 21
85.8536
  0
LINE
  8
0
 10
-85.7207
 20
85.8536
 11
-84.9203
 21
85.7125
  0
LINE
  8
0
 10
-84.9203
 20
85.7125
 11
-84.0505
 21
90.6453
  0
LINE
  8
0
 10
-84.0505
 20
90.6453
 11
-84.851
 21
90.7864
  0
LINE
  8
0
 10
-84.851
 20
90.7864
 11
-84.2432
 21
94.2334
  0
LINE
  8
0
 10
-84.2432
 20
94.2334
 11
-83.4427
 21
94.0922
  0
LINE
  8
0
 10
-83.4427
 20
94.0922
 11
-83.2699
 21
95.0725
  0
LINE
  8
0
 10
-83.2699
 20
95.0725
 11
-69.4826
 21
92.6415
  0
LINE
  8
0
 10
-69.4826
 20
92.6415
 11
-69.6554
 21
91.6611
  0
LINE
  8
0
 10
-69.6554
 20
91.6611
 11
-68.855
 21
91.52
  0
LINE
  8
0
 10
-68.855
 20
91.52
 11
-69.4628
 21
88.0731
  0
LINE
  8
0
 10
-69.4628
 20
88.0731
 11
-70.2632
 21
88.2142
  0
LINE
  8
0
 10
-70.2632
 20
88.2142
 11
-71.133
 21
83.2814
  0
LINE
  8
0
 10
-71.133
 20
83.2814
 11
-70.3325
 21
83.1403
  0
LINE
  8
0
 10
-70.3325
 20
83.1403
 11
-70.9403
 21
79.6933
  0
LINE
  8
0
 10
-70.9403
 20
79.6933
 11
-71.7408
 21
79.8345
  0
LINE
  8
0
 10
-71.7408
 20
79.8345
 11
-71.9136
 21
78.8542
  0
LINE
  8
0
 10
-71.9136
 20
78.8542
 11
-85.7009
 21
81.2852
  0
LINE
  8
0
 10
71.7408
 20
79.8345
 11
70.9403
 21
79.6933
  0
LINE
  8
0
 10
70.9403
 20
79.6933
 11
70.3325
 21
83.1403
  0
LINE
  8
0
 10
70.3325
 20
83.1403
 11
71.133
 21
83.2814
  0
LINE
  8
0
 10
71.133
 20
83.2814
 11
70.2632
 21
88.2142
  0
LINE
  8
0
 10
70.2632
 20
88.2142
 11
69.4628
 21
88.0731
  0
LINE
  8
0
 10
69.4628
 20
88.0731
 11
68.855
 21
91.52
  0
LINE
  8
0
 10
68.855
 20
91.52
 11
69.6554
 21
91.6611
  0
LINE
  8
0
 10
69.6554
 20
91.6611
 11
69.4826
 21
92.6415
  0
LINE
  8
0
 10
69.4826
 20
92.6415
 11
83.2699
 21
95.0725
  0
LINE
  8
0
 10
83.2699
 20
95.0725
 11
83.4427
 21
94.0922
  0
LINE
  8
0
 10
83.4427
 20
94.0922
 11
84.2432
 21
94.2334
  0
LINE
  8
0
 10
84.2432
 20
94.2334
 11
84.851
 21
90.7864
  0
LINE
  8
0
 10
84.851
 20
90.7864
 11
84.0505
 21
90.6453
  0
LINE
  8
0
 10
84.0505
 20
90.6453
 11
84.9203
 21
85.7125
  0
LINE
  8
0
 10
84.9203
 20
85.7125
 11
85.7207
 21
85.8536
  0
LINE
  8
0
 10
85.7207
 20
85.8536
 11
86.3285
 21
82.4067
  0
LINE
  8
0
 10
86.3285
 20
82.4067
 11
85.5281
 21
82.2656
  0
LINE
  8
0
 10
85.5281
 20
82.2656
 11
85.7009
 21
81.2852
  0
LINE
  8
0
 10
85.7009
 20
81.2852
 11
71.9136
 21
78.8542
  0
LINE
  8
0
 10
71.9136
 20
78.8542
 11
71.7408
 21
79.8345
  0
LINE
  8
0
 10
-48.3534
 20
73.6844
 11
-48.1806
 21
74.6647
  0
LINE
  8
0
 10
-48.1806
 20
74.6647
 11
-48.981
 21
74.8059
  0
LINE
  8
0
 10
-48.981
 20
74.8059
 11
-48.3732
 21
78.2528
  0
LINE
  8
0
 10
-48.3732
 20
78.2528
 11
-47.5728
 21
78.1117
  0
LINE
  8
0
 10
-47.5728
 20
78.1117
 11
-46.703
 21
83.0445
  0
LINE
  8
0
 10
-46.703
 20
83.0445
 11
-47.5034
 21
83.1856
  0
LINE
  8
0
 10
-47.5034
 20
83.1856
 11
-46.8956
 21
86.6325
  0
LINE
  8
0
 10
-46.8956
 20
86.6325
 11
-46.0952
 21
86.4914
  0
LINE
  8
0
 10
-46.0952
 20
86.4914
 11
-45.9223
 21
87.4717
  0
LINE
  8
0
 10
-45.9223
 20
87.4717
 11
-32.135
 21
85.0407
  0
LINE
  8
0
 10
-32.135
 20
85.0407
 11
-32.3079
 21
84.0603
  0
LINE
  8
0
 10
-32.3079
 20
84.0603
 11
-31.5074
 21
83.9192
  0
LINE
  8
0
 10
-31.5074
 20
83.9192
 11
-32.1152
 21
80.4723
  0
LINE
  8
0
 10
-32.1152
 20
80.4723
 11
-32.9157
 21
80.6134
  0
LINE
  8
0
 10
-32.9157
 20
80.6134
 11
-33.7855
 21
75.6806
  0
LINE
  8
0
 10
-33.7855
 20
75.6806
 11
-32.985
 21
75.5395
  0
LINE
  8
0
 10
-32.985
 20
75.5395
 11
-33.5928
 21
72.0925
  0
LINE
  8
0
 10
-33.5928
 20
72.0925
 11
-34.3932
 21
72.2337
  0
LINE
  8
0
 10
-34.3932
 20
72.2337
 11
-34.5661
 21
71.2534
  0
LINE
  8
0
 10
-34.5661
 20
71.2534
 11
-48.3534
 21
73.6844
  0
LINE
  8
0
 10
34.3932
 20
72.2337
 11
33.5928
 21
72.0925
  0
LINE
  8
0
 10
33.5928
 20
72.0925
 11
32.985
 21
75.5395
  0
LINE
  8
0
 10
32.985
 20
75.5395
 11
33.7855
 21
75.6806
  0
LINE
  8
0
 10
33.7855
 20
75.6806
 11
32.9157
 21
80.6134
  0
LINE
  8
0
 10
32.9157
 20
80.6134
 11
32.1152
 21
80.4723
  0
LINE
  8
0
 10
32.1152
 20
80.4723
 11
31.5074
 21
83.9192
  0
LINE
  8
0
 10
31.5074
 20
83.9192
 11
32.3079
 21
84.0603
  0
LINE
  8
0
 10
32.3079
 20
84.0603
 11
32.135
 21
85.0407
  0
LINE
  8
0
 10
32.135
 20
85.0407
 11
45.9223
 21
87.4717
  0
LINE
  8
0
 10
45.9223
 20
87.4717
 11
46.0952
 21
86.4914
  0
LINE
  8
0
 10
46.0952
 20
86.4914
 11
46.8956
 21
86.6325
  0
LINE
  8
0
 10
46.8956
 20
86.6325
 11
47.5034
 21
83.1856
  0
LINE
  8
0
 10
47.5034
 20
83.1856
 11
46.703
 21
83.0445
  0
LINE
  8
0
 10
46.703
 20
83.0445
 11
47.5728
 21
78.1117
  0
LINE
  8
0
 10
47.5728
 20
78.1117
 11
48.3732
 21
78.2528
  0
LINE
  8
0
 10
48.3732
 20
78.2528
 11
48.981
 21
74.8059
  0
LINE
  8
0
 10
48.981
 20
74.8059
 11
48.1806
 21
74.6647
  0
LINE
  8
0
 10
48.1806
 20
74.6647
 11
48.3534
 21
73.6844
  0
LINE
  8
0
 10
48.3534
 20
73.6844
 11
34.5661
 21
71.2534
  0
LINE
  8
0
 10
34.5661
 20
71.2534
 11
34.3932
 21
72.2337
  0
LINE
  8
0
 10
113.091
 20
64.7355
 11
112.29
 21
64.5943
  0
LINE
  8
0
 10
112.29
 20
64.5943
 11
111.683
 21
68.0413
  0
LINE
  8
0
 10
111.683
 20
68.0413
 11
112.483
 21
68.1824
  0
LINE
  8
0
 10
112.483
 20
68.1824
 11
111.613
 21
73.1152
  0
LINE
  8
0
 10
111.613
 20
73.1152
 11
110.813
 21
72.974
  0
LINE
  8
0
 10
110.813
 20
72.974
 11
110.205
 21
76.421
  0
LINE
  8
0
 10
110.205
 20
76.421
 11
111.006
 21
76.5621
  0
LINE
  8
0
 10
111.006
 20
76.5621
 11
110.833
 21
77.5424
  0
LINE
  8
0
 10
110.833
 20
77.5424
 11
124.62
 21
79.9735
  0
LINE
  8
0
 10
124.62
 20
79.9735
 11
124.793
 21
78.9932
  0
LINE
  8
0
 10
124.793
 20
78.9932
 11
125.593
 21
79.1343
  0
LINE
  8
0
 10
125.593
 20
79.1343
 11
126.201
 21
75.6874
  0
LINE
  8
0
 10
126.201
 20
75.6874
 11
125.401
 21
75.5462
  0
LINE
  8
0
 10
125.401
 20
75.5462
 11
126.27
 21
70.6135
  0
LINE
  8
0
 10
126.27
 20
70.6135
 11
127.071
 21
70.7546
  0
LINE
  8
0
 10
127.071
 20
70.7546
 11
127.679
 21
67.3077
  0
LINE
  8
0
 10
127.679
 20
67.3077
 11
126.878
 21
67.1665
  0
LINE
  8
0
 10
126.878
 20
67.1665
 11
127.051
 21
66.1862
  0
LINE
  8
0
 10
127.051
 20
66.1862
 11
113.264
 21
63.7551
  0
LINE
  8
0
 10
113.264
 20
63.7551
 11
113.091
 21
64.7355
  0
LINE
  8
0
 10
-127.051
 20
66.1862
 11
-126.878
 21
67.1665
  0
LINE
  8
0
 10
-126.878
 20
67.1665
 11
-127.679
 21
67.3077
  0
LINE
  8
0
 10
-127.679
 20
67.3077
 11
-127.071
 21
70.7546
  0
LINE
  8
0
 10
-127.071
 20
70.7546
 11
-126.27
 21
70.6135
  0
LINE
  8
0
 10
-126.27
 20
70.6135
 11
-125.401
 21
75.5462
  0
LINE
  8
0
 10
-125.401
 20
75.5462
 11
-126.201
 21
75.6874
  0
LINE
  8
0
 10
-126.201
 20
75.6874
 11
-125.593
 21
79.1343
  0
LINE
  8
0
 10
-125.593
 20
79.1343
 11
-124.793
 21
78.9932
  0
LINE
  8
0
 10
-124.793
 20
78.9932
 11
-124.62
 21
79.9735
  0
LINE
  8
0
 10
-124.62
 20
79.9735
 11
-110.833
 21
77.5424
  0
LINE
  8
0
 10
-110.833
 20
77.5424
 11
-111.006
 21
76.5621
  0
LINE
  8
0
 10
-111.006
 20
76.5621
 11
-110.205
 21
76.421
  0
LINE
  8
0
 10
-110.205
 20
76.421
 11
-110.813
 21
72.974
  0
LINE
  8
0
 10
-110.813
 20
72.974
 11
-111.613
 21
73.1152
  0
LINE
  8
0
 10
-111.613
 20
73.1152
 11
-112.483
 21
68.1824
  0
LINE
  8
0
 10
-112.483
 20
68.1824
 11
-111.683
 21
68.0413
  0
LINE
  8
0
 10
-111.683
 20
68.0413
 11
-112.29
 21
64.5943
  0
LINE
  8
0
 10
-112.29
 20
64.5943
 11
-113.091
 21
64.7355
  0
LINE
  8
0
 10
-113.091
 20
64.7355
 11
-113.264
 21
63.7551
  0
LINE
  8
0
 10
-113.264
 20
63.7551
 11
-127.051
 21
66.1862
  0
LINE
  8
0
 10
16.5009
 20
64.0016
 11
15.7005
 21
63.8605
  0
LINE
  8
0
 10
15.7005
 20
63.8605
 11
15.0927
 21
67.3074
  0
LINE
  8
0
 10
15.0927
 20
67.3074
 11
15.8931
 21
67.4486
  0
LINE
  8
0
 10
15.8931
 20
67.4486
 11
15.0233
 21
72.3814
  0
LINE
  8
0
 10
15.0233
 20
72.3814
 11
14.2229
 21
72.2402
  0
LINE
  8
0
 10
14.2229
 20
72.2402
 11
13.6151
 21
75.6871
  0
LINE
  8
0
 10
13.6151
 20
75.6871
 11
14.4155
 21
75.8283
  0
LINE
  8
0
 10
14.4155
 20
75.8283
 11
14.2427
 21
76.8086
  0
LINE
  8
0
 10
14.2427
 20
76.8086
 11
28.03
 21
79.2397
  0
LINE
  8
0
 10
28.03
 20
79.2397
 11
28.2029
 21
78.2594
  0
LINE
  8
0
 10
28.2029
 20
78.2594
 11
29.0033
 21
78.4005
  0
LINE
  8
0
 10
29.0033
 20
78.4005
 11
29.6111
 21
74.9536
  0
LINE
  8
0
 10
29.6111
 20
74.9536
 11
28.8106
 21
74.8124
  0
LINE
  8
0
 10
28.8106
 20
74.8124
 11
29.6804
 21
69.8797
  0
LINE
  8
0
 10
29.6804
 20
69.8797
 11
30.4809
 21
70.0208
  0
LINE
  8
0
 10
30.4809
 20
70.0208
 11
31.0887
 21
66.5739
  0
LINE
  8
0
 10
31.0887
 20
66.5739
 11
30.2882
 21
66.4327
  0
LINE
  8
0
 10
30.2882
 20
66.4327
 11
30.4611
 21
65.4524
  0
LINE
  8
0
 10
30.4611
 20
65.4524
 11
16.6738
 21
63.0213
  0
LINE
  8
0
 10
16.6738
 20
63.0213
 11
16.5009
 21
64.0016
  0
LINE
  8
0
 10
-30.4611
 20
65.4524
 11
-30.2882
 21
66.4327
  0
LINE
  8
0
 10
-30.2882
 20
66.4327
 11
-31.0887
 21
66.5739
  0
LINE
  8
0
 10
-31.0887
 20
66.5739
 11
-30.4809
 21
70.0208
  0
LINE
  8
0
 10
-30.4809
 20
70.0208
 11
-29.6804
 21
69.8797
  0
LINE
  8
0
 10
-29.6804
 20
69.8797
 11
-28.8106
 21
74.8124
  0
LINE
  8
0
 10
-28.8106
 20
74.8124
 11
-29.6111
 21
74.9536
  0
LINE
  8
0
 10
-29.6111
 20
74.9536
 11
-29.0033
 21
78.4005
  0
LINE
  8
0
 10
-29.0033
 20
78.4005
 11
-28.2029
 21
78.2594
  0
LINE
  8
0
 10
-28.2029
 20
78.2594
 11
-28.03
 21
79.2397
  0
LINE
  8
0
 10
-28.03
 20
79.2397
 11
-14.2427
 21
76.8086
  0
LINE
  8
0
 10
-14.2427
 20
76.8086
 11
-14.4155
 21
75.8283
  0
LINE
  8
0
 10
-14.4155
 20
75.8283
 11
-13.6151
 21
75.6871
  0
LINE
  8
0
 10
-13.6151
 20
75.6871
 11
-14.2229
 21
72.2402
  0
LINE
  8
0
 10
-14.2229
 20
72.2402
 11
-15.0233
 21
72.3814
  0
LINE
  8
0
 10
-15.0233
 20
72.3814
 11
-15.8931
 21
67.4486
  0
LINE
  8
0
 10
-15.8931
 20
67.4486
 11
-15.0927
 21
67.3074
  0
LINE
  8
0
 10
-15.0927
 20
67.3074
 11
-15.7005
 21
63.8605
  0
LINE
  8
0
 10
-15.7005
 20
63.8605
 11
-16.5009
 21
64.0016
  0
LINE
  8
0
 10
-16.5009
 20
64.0016
 11
-16.6738
 21
63.0213
  0
LINE
  8
0
 10
-16.6738
 20
63.0213
 11
-30.4611
 21
65.4524
  0
LINE
  8
0
 10
55.4199
 20
62.6899
 11
54.6195
 21
62.5488
  0
LINE
  8
0
 10
54.6195
 20
62.5488
 11
54.0117
 21
65.9957
  0
LINE
  8
0
 10
54.0117
 20
65.9957
 11
54.8121
 21
66.1369
  0
LINE
  8
0
 10
54.8121
 20
66.1369
 11
53.9424
 21
71.0696
  0
LINE
  8
0
 10
53.9424
 20
71.0696
 11
53.1419
 21
70.9285
  0
LINE
  8
0
 10
53.1419
 20
70.9285
 11
52.5341
 21
74.3754
  0
LINE
  8
0
 10
52.5341
 20
74.3754
 11
53.3346
 21
74.5166
  0
LINE
  8
0
 10
53.3346
 20
74.5166
 11
53.1617
 21
75.4969
  0
LINE
  8
0
 10
53.1617
 20
75.4969
 11
66.949
 21
77.928
  0
LINE
  8
0
 10
66.949
 20
77.928
 11
67.1219
 21
76.9477
  0
LINE
  8
0
 10
67.1219
 20
76.9477
 11
67.9223
 21
77.0888
  0
LINE
  8
0
 10
67.9223
 20
77.0888
 11
68.5301
 21
73.6419
  0
LINE
  8
0
 10
68.5301
 20
73.6419
 11
67.7297
 21
73.5007
  0
LINE
  8
0
 10
67.7297
 20
73.5007
 11
68.5995
 21
68.5679
  0
LINE
  8
0
 10
68.5995
 20
68.5679
 11
69.3999
 21
68.7091
  0
LINE
  8
0
 10
69.3999
 20
68.7091
 11
70.0077
 21
65.2621
  0
LINE
  8
0
 10
70.0077
 20
65.2621
 11
69.2072
 21
65.121
  0
LINE
  8
0
 10
69.2072
 20
65.121
 11
69.3801
 21
64.1407
  0
LINE
  8
0
 10
69.3801
 20
64.1407
 11
55.5928
 21
61.7096
  0
LINE
  8
0
 10
55.5928
 20
61.7096
 11
55.4199
 21
62.6899
  0
LINE
  8
0
 10
-69.3801
 20
64.1407
 11
-69.2072
 21
65.121
  0
LINE
  8
0
 10
-69.2072
 20
65.121
 11
-70.0077
 21
65.2621
  0
LINE
  8
0
 10
-70.0077
 20
65.2621
 11
-69.3999
 21
68.7091
  0
LINE
  8
0
 10
-69.3999
 20
68.7091
 11
-68.5995
 21
68.5679
  0
LINE
  8
0
 10
-68.5995
 20
68.5679
 11
-67.7297
 21
73.5007
  0
LINE
  8
0
 10
-67.7297
 20
73.5007
 11
-68.5301
 21
73.6419
  0
LINE
  8
0
 10
-68.5301
 20
73.6419
 11
-67.9223
 21
77.0888
  0
LINE
  8
0
 10
-67.9223
 20
77.0888
 11
-67.1219
 21
76.9477
  0
LINE
  8
0
 10
-67.1219
 20
76.9477
 11
-66.949
 21
77.928
  0
LINE
  8
0
 10
-66.949
 20
77.928
 11
-53.1617
 21
75.4969
  0
LINE
  8
0
 10
-53.1617
 20
75.4969
 11
-53.3346
 21
74.5166
  0
LINE
  8
0
 10
-53.3346
 20
74.5166
 11
-52.5341
 21
74.3754
  0
LINE
  8
0
 10
-52.5341
 20
74.3754
 11
-53.1419
 21
70.9285
  0
LINE
  8
0
 10
-53.1419
 20
70.9285
 11
-53.9424
 21
71.0696
  0
LINE
  8
0
 10
-53.9424
 20
71.0696
 11
-54.8121
 21
66.1369
  0
LINE
  8
0
 10
-54.8121
 20
66.1369
 11
-54.0117
 21
65.9957
  0
LINE
  8
0
 10
-54.0117
 20
65.9957
 11
-54.6195
 21
62.5488
  0
LINE
  8
0
 10
-54.6195
 20
62.5488
 11
-55.4199
 21
62.6899
  0
LINE
  8
0
 10
-55.4199
 20
62.6899
 11
-55.5928
 21
61.7096
  0
LINE
  8
0
 10
-55.5928
 20
61.7096
 11
-69.3801
 21
64.1407
  0
LINE
  8
0
 10
94.3303
 20
61.4275
 11
93.5299
 21
61.2863
  0
LINE
  8
0
 10
93.5299
 20
61.2863
 11
92.9221
 21
64.7333
  0
LINE
  8
0
 10
92.9221
 20
64.7333
 11
93.7225
 21
64.8744
  0
LINE
  8
0
 10
93.7225
 20
64.8744
 11
92.8527
 21
69.8072
  0
LINE
  8
0
 10
92.8527
 20
69.8072
 11
92.0523
 21
69.666
  0
LINE
  8
0
 10
92.0523
 20
69.666
 11
91.4445
 21
73.113
  0
LINE
  8
0
 10
91.4445
 20
73.113
 11
92.2449
 21
73.2541
  0
LINE
  8
0
 10
92.2449
 20
73.2541
 11
92.0721
 21
74.2345
  0
LINE
  8
0
 10
92.0721
 20
74.2345
 11
105.859
 21
76.6655
  0
LINE
  8
0
 10
105.859
 20
76.6655
 11
106.032
 21
75.6852
  0
LINE
  8
0
 10
106.032
 20
75.6852
 11
106.833
 21
75.8263
  0
LINE
  8
0
 10
106.833
 20
75.8263
 11
107.44
 21
72.3794
  0
LINE
  8
0
 10
107.44
 20
72.3794
 11
106.64
 21
72.2383
  0
LINE
  8
0
 10
106.64
 20
72.2383
 11
107.51
 21
67.3055
  0
LINE
  8
0
 10
107.51
 20
67.3055
 11
108.31
 21
67.4466
  0
LINE
  8
0
 10
108.31
 20
67.4466
 11
108.918
 21
63.9997
  0
LINE
  8
0
 10
108.918
 20
63.9997
 11
108.118
 21
63.8585
  0
LINE
  8
0
 10
108.118
 20
63.8585
 11
108.29
 21
62.8782
  0
LINE
  8
0
 10
108.29
 20
62.8782
 11
94.5032
 21
60.4471
  0
LINE
  8
0
 10
94.5032
 20
60.4471
 11
94.3303
 21
61.4275
  0
LINE
  8
0
 10
-108.29
 20
62.8782
 11
-108.118
 21
63.8585
  0
LINE
  8
0
 10
-108.118
 20
63.8585
 11
-108.918
 21
63.9997
  0
LINE
  8
0
 10
-108.918
 20
63.9997
 11
-108.31
 21
67.4466
  0
LINE
  8
0
 10
-108.31
 20
67.4466
 11
-107.51
 21
67.3055
  0
LINE
  8
0
 10
-107.51
 20
67.3055
 11
-106.64
 21
72.2383
  0
LINE
  8
0
 10
-106.64
 20
72.2383
 11
-107.44
 21
72.3794
  0
LINE
  8
0
 10
-107.44
 20
72.3794
 11
-106.833
 21
75.8263
  0
LINE
  8
0
 10
-106.833
 20
75.8263
 11
-106.032
 21
75.6852
  0
LINE
  8
0
 10
-106.032
 20
75.6852
 11
-105.859
 21
76.6655
  0
LINE
  8
0
 10
-105.859
 20
76.6655
 11
-92.0721
 21
74.2345
  0
LINE
  8
0
 10
-92.0721
 20
74.2345
 11
-92.2449
 21
73.2541
  0
LINE
  8
0
 10
-92.2449
 20
73.2541
 11
-91.4445
 21
73.113
  0
LINE
  8
0
 10
-91.4445
 20
73.113
 11
-92.0523
 21
69.666
  0
LINE
  8
0
 10
-92.0523
 20
69.666
 11
-92.8527
 21
69.8072
  0
LINE
  8
0
 10
-92.8527
 20
69.8072
 11
-93.7225
 21
64.8744
  0
LINE
  8
0
 10
-93.7225
 20
64.8744
 11
-92.9221
 21
64.7333
  0
LINE
  8
0
 10
-92.9221
 20
64.7333
 11
-93.5299
 21
61.2863
  0
LINE
  8
0
 10
-93.5299
 20
61.2863
 11
-94.3303
 21
61.4275
  0
LINE
  8
0
 10
-94.3303
 20
61.4275
 11
-94.5032
 21
60.4471
  0
LINE
  8
0
 10
-94.5032
 20
60.4471
 11
-108.29
 21
62.8782
  0
LINE
  8
0
 10
75.0488
 20
61.0739
 11
74.2483
 21
60.9328
  0
LINE
  8
0
 10
74.2483
 20
60.9328
 11
73.6405
 21
64.3797
  0
LINE
  8
0
 10
73.6405
 20
64.3797
 11
74.441
 21
64.5208
  0
LINE
  8
0
 10
74.441
 20
64.5208
 11
73.5712
 21
69.4536
  0
LINE
  8
0
 10
73.5712
 20
69.4536
 11
72.7708
 21
69.3125
  0
LINE
  8
0
 10
72.7708
 20
69.3125
 11
72.163
 21
72.7594
  0
LINE
  8
0
 10
72.163
 20
72.7594
 11
72.9634
 21
72.9005
  0
LINE
  8
0
 10
72.9634
 20
72.9005
 11
72.7906
 21
73.8809
  0
LINE
  8
0
 10
72.7906
 20
73.8809
 11
86.5779
 21
76.312
  0
LINE
  8
0
 10
86.5779
 20
76.312
 11
86.7507
 21
75.3316
  0
LINE
  8
0
 10
86.7507
 20
75.3316
 11
87.5512
 21
75.4727
  0
LINE
  8
0
 10
87.5512
 20
75.4727
 11
88.159
 21
72.0258
  0
LINE
  8
0
 10
88.159
 20
72.0258
 11
87.3585
 21
71.8847
  0
LINE
  8
0
 10
87.3585
 20
71.8847
 11
88.2283
 21
66.9519
  0
LINE
  8
0
 10
88.2283
 20
66.9519
 11
89.0287
 21
67.093
  0
LINE
  8
0
 10
89.0287
 20
67.093
 11
89.6365
 21
63.6461
  0
LINE
  8
0
 10
89.6365
 20
63.6461
 11
88.8361
 21
63.505
  0
LINE
  8
0
 10
88.8361
 20
63.505
 11
89.0089
 21
62.5246
  0
LINE
  8
0
 10
89.0089
 20
62.5246
 11
75.2216
 21
60.0936
  0
LINE
  8
0
 10
75.2216
 20
60.0936
 11
75.0488
 21
61.0739
  0
LINE
  8
0
 10
-89.0089
 20
62.5246
 11
-88.8361
 21
63.505
  0
LINE
  8
0
 10
-88.8361
 20
63.505
 11
-89.6365
 21
63.6461
  0
LINE
  8
0
 10
-89.6365
 20
63.6461
 11
-89.0287
 21
67.093
  0
LINE
  8
0
 10
-89.0287
 20
67.093
 11
-88.2283
 21
66.9519
  0
LINE
  8
0
 10
-88.2283
 20
66.9519
 11
-87.3585
 21
71.8847
  0
LINE
  8
0
 10
-87.3585
 20
71.8847
 11
-88.159
 21
72.0258
  0
LINE
  8
0
 10
-88.159
 20
72.0258
 11
-87.5512
 21
75.4727
  0
LINE
  8
0
 10
-87.5512
 20
75.4727
 11
-86.7507
 21
75.3316
  0
LINE
  8
0
 10
-86.7507
 20
75.3316
 11
-86.5779
 21
76.312
  0
LINE
  8
0
 10
-86.5779
 20
76.312
 11
-72.7906
 21
73.8809
  0
LINE
  8
0
 10
-72.7906
 20
73.8809
 11
-72.9634
 21
72.9005
  0
LINE
  8
0
 10
-72.9634
 20
72.9005
 11
-72.163
 21
72.7594
  0
LINE
  8
0
 10
-72.163
 20
72.7594
 11
-72.7708
 21
69.3125
  0
LINE
  8
0
 10
-72.7708
 20
69.3125
 11
-73.5712
 21
69.4536
  0
LINE
  8
0
 10
-73.5712
 20
69.4536
 11
-74.441
 21
64.5208
  0
LINE
  8
0
 10
-74.441
 20
64.5208
 11
-73.6405
 21
64.3797
  0
LINE
  8
0
 10
-73.6405
 20
64.3797
 11
-74.2483
 21
60.9328
  0
LINE
  8
0
 10
-74.2483
 20
60.9328
 11
-75.0488
 21
61.0739
  0
LINE
  8
0
 10
-75.0488
 20
61.0739
 11
-75.2216
 21
60.0936
  0
LINE
  8
0
 10
-75.2216
 20
60.0936
 11
-89.0089
 21
62.5246
  0
LINE
  8
0
 10
-51.6614
 20
54.9238
 11
-51.4886
 21
55.9042
  0
LINE
  8
0
 10
-51.4886
 20
55.9042
 11
-52.289
 21
56.0453
  0
LINE
  8
0
 10
-52.289
 20
56.0453
 11
-51.6812
 21
59.4922
  0
LINE
  8
0
 10
-51.6812
 20
59.4922
 11
-50.8808
 21
59.3511
  0
LINE
  8
0
 10
-50.8808
 20
59.3511
 11
-50.011
 21
64.2839
  0
LINE
  8
0
 10
-50.011
 20
64.2839
 11
-50.8114
 21
64.425
  0
LINE
  8
0
 10
-50.8114
 20
64.425
 11
-50.2036
 21
67.8719
  0
LINE
  8
0
 10
-50.2036
 20
67.8719
 11
-49.4032
 21
67.7308
  0
LINE
  8
0
 10
-49.4032
 20
67.7308
 11
-49.2303
 21
68.7111
  0
LINE
  8
0
 10
-49.2303
 20
68.7111
 11
-35.443
 21
66.2801
  0
LINE
  8
0
 10
-35.443
 20
66.2801
 11
-35.6159
 21
65.2997
  0
LINE
  8
0
 10
-35.6159
 20
65.2997
 11
-34.8154
 21
65.1586
  0
LINE
  8
0
 10
-34.8154
 20
65.1586
 11
-35.4232
 21
61.7117
  0
LINE
  8
0
 10
-35.4232
 20
61.7117
 11
-36.2237
 21
61.8528
  0
LINE
  8
0
 10
-36.2237
 20
61.8528
 11
-37.0935
 21
56.92
  0
LINE
  8
0
 10
-37.0935
 20
56.92
 11
-36.293
 21
56.7789
  0
LINE
  8
0
 10
-36.293
 20
56.7789
 11
-36.9008
 21
53.332
  0
LINE
  8
0
 10
-36.9008
 20
53.332
 11
-37.7012
 21
53.4731
  0
LINE
  8
0
 10
-37.7012
 20
53.4731
 11
-37.8741
 21
52.4928
  0
LINE
  8
0
 10
-37.8741
 20
52.4928
 11
-51.6614
 21
54.9238
  0
LINE
  8
0
 10
37.7012
 20
53.4731
 11
36.9008
 21
53.332
  0
LINE
  8
0
 10
36.9008
 20
53.332
 11
36.293
 21
56.7789
  0
LINE
  8
0
 10
36.293
 20
56.7789
 11
37.0935
 21
56.92
  0
LINE
  8
0
 10
37.0935
 20
56.92
 11
36.2237
 21
61.8528
  0
LINE
  8
0
 10
36.2237
 20
61.8528
 11
35.4232
 21
61.7117
  0
LINE
  8
0
 10
35.4232
 20
61.7117
 11
34.8154
 21
65.1586
  0
LINE
  8
0
 10
34.8154
 20
65.1586
 11
35.6159
 21
65.2997
  0
LINE
  8
0
 10
35.6159
 20
65.2997
 11
35.443
 21
66.2801
  0
LINE
  8
0
 10
35.443
 20
66.2801
 11
49.2303
 21
68.7111
  0
LINE
  8
0
 10
49.2303
 20
68.7111
 11
49.4032
 21
67.7308
  0
LINE
  8
0
 10
49.4032
 20
67.7308
 11
50.2036
 21
67.8719
  0
LINE
  8
0
 10
50.2036
 20
67.8719
 11
50.8114
 21
64.425
  0
LINE
  8
0
 10
50.8114
 20
64.425
 11
50.011
 21
64.2839
  0
LINE
  8
0
 10
50.011
 20
64.2839
 11
50.8808
 21
59.3511
  0
LINE
  8
0
 10
50.8808
 20
59.3511
 11
51.6812
 21
59.4922
  0
LINE
  8
0
 10
51.6812
 20
59.4922
 11
52.289
 21
56.0453
  0
LINE
  8
0
 10
52.289
 20
56.0453
 11
51.4886
 21
55.9042
  0
LINE
  8
0
 10
51.4886
 20
55.9042
 11
51.6614
 21
54.9238
  0
LINE
  8
0
 10
51.6614
 20
54.9238
 11
37.8741
 21
52.4928
  0
LINE
  8
0
 10
37.8741
 20
52.4928
 11
37.7012
 21
53.4731
  0
LINE
  8
0
 10
-130.359
 20
47.4256
 11
-130.186
 21
48.4059
  0
LINE
  8
0
 10
-130.186
 20
48.4059
 11
-130.987
 21
48.5471
  0
LINE
  8
0
 10
-130.987
 20
48.5471
 11
-130.379
 21
51.994
  0
LINE
  8
0
 10
-130.379
 20
51.994
 11
-129.578
 21
51.8529
  0
LINE
  8
0
 10
-129.578
 20
51.8529
 11
-128.709
 21
56.7857
  0
LINE
  8
0
 10
-128.709
 20
56.7857
 11
-129.509
 21
56.9268
  0
LINE
  8
0
 10
-129.509
 20
56.9268
 11
-128.901
 21
60.3737
  0
LINE
  8
0
 10
-128.901
 20
60.3737
 11
-128.101
 21
60.2326
  0
LINE
  8
0
 10
-128.101
 20
60.2326
 11
-127.928
 21
61.2129
  0
LINE
  8
0
 10
-127.928
 20
61.2129
 11
-114.141
 21
58.7819
  0
LINE
  8
0
 10
-114.141
 20
58.7819
 11
-114.314
 21
57.8015
  0
LINE
  8
0
 10
-114.314
 20
57.8015
 11
-113.513
 21
57.6604
  0
LINE
  8
0
 10
-113.513
 20
57.6604
 11
-114.121
 21
54.2135
  0
LINE
  8
0
 10
-114.121
 20
54.2135
 11
-114.921
 21
54.3546
  0
LINE
  8
0
 10
-114.921
 20
54.3546
 11
-115.791
 21
49.4218
  0
LINE
  8
0
 10
-115.791
 20
49.4218
 11
-114.991
 21
49.2807
  0
LINE
  8
0
 10
-114.991
 20
49.2807
 11
-115.598
 21
45.8337
  0
LINE
  8
0
 10
-115.598
 20
45.8337
 11
-116.399
 21
45.9749
  0
LINE
  8
0
 10
-116.399
 20
45.9749
 11
-116.572
 21
44.9945
  0
LINE
  8
0
 10
-116.572
 20
44.9945
 11
-130.359
 21
47.4256
  0
LINE
  8
0
 10
116.399
 20
45.9749
 11
115.598
 21
45.8337
  0
LINE
  8
0
 10
115.598
 20
45.8337
 11
114.991
 21
49.2807
  0
LINE
  8
0
 10
114.991
 20
49.2807
 11
115.791
 21
49.4218
  0
LINE
  8
0
 10
115.791
 20
49.4218
 11
114.921
 21
54.3546
  0
LINE
  8
0
 10
114.921
 20
54.3546
 11
114.121
 21
54.2135
  0
LINE
  8
0
 10
114.121
 20
54.2135
 11
113.513
 21
57.6604
  0
LINE
  8
0
 10
113.513
 20
57.6604
 11
114.314
 21
57.8015
  0
LINE
  8
0
 10
114.314
 20
57.8015
 11
114.141
 21
58.7819
  0
LINE
  8
0
 10
114.141
 20
58.7819
 11
127.928
 21
61.2129
  0
LINE
  8
0
 10
127.928
 20
61.2129
 11
128.101
 21
60.2326
  0
LINE
  8
0
 10
128.101
 20
60.2326
 11
128.901
 21
60.3737
  0
LINE
  8
0
 10
128.901
 20
60.3737
 11
129.509
 21
56.9268
  0
LINE
  8
0
 10
129.509
 20
56.9268
 11
128.709
 21
56.7857
  0
LINE
  8
0
 10
128.709
 20
56.7857
 11
129.578
 21
51.8529
  0
LINE
  8
0
 10
129.578
 20
51.8529
 11
130.379
 21
51.994
  0
LINE
  8
0
 10
130.379
 20
51.994
 11
130.987
 21
48.5471
  0
LINE
  8
0
 10
130.987
 20
48.5471
 11
130.186
 21
48.4059
  0
LINE
  8
0
 10
130.186
 20
48.4059
 11
130.359
 21
47.4256
  0
LINE
  8
0
 10
130.359
 20
47.4256
 11
116.572
 21
44.9945
  0
LINE
  8
0
 10
116.572
 20
44.9945
 11
116.399
 21
45.9749
  0
LINE
  8
0
 10
-33.7691
 20
46.6918
 11
-33.5962
 21
47.6721
  0
LINE
  8
0
 10
-33.5962
 20
47.6721
 11
-34.3967
 21
47.8133
  0
LINE
  8
0
 10
-34.3967
 20
47.8133
 11
-33.7889
 21
51.2602
  0
LINE
  8
0
 10
-33.7889
 20
51.2602
 11
-32.9884
 21
51.1191
  0
LINE
  8
0
 10
-32.9884
 20
51.1191
 11
-32.1186
 21
56.0518
  0
LINE
  8
0
 10
-32.1186
 20
56.0518
 11
-32.9191
 21
56.193
  0
LINE
  8
0
 10
-32.9191
 20
56.193
 11
-32.3113
 21
59.6399
  0
LINE
  8
0
 10
-32.3113
 20
59.6399
 11
-31.5108
 21
59.4988
  0
LINE
  8
0
 10
-31.5108
 20
59.4988
 11
-31.338
 21
60.4791
  0
LINE
  8
0
 10
-31.338
 20
60.4791
 11
-17.5507
 21
58.048
  0
LINE
  8
0
 10
-17.5507
 20
58.048
 11
-17.7235
 21
57.0677
  0
LINE
  8
0
 10
-17.7235
 20
57.0677
 11
-16.9231
 21
56.9266
  0
LINE
  8
0
 10
-16.9231
 20
56.9266
 11
-17.5309
 21
53.4796
  0
LINE
  8
0
 10
-17.5309
 20
53.4796
 11
-18.3313
 21
53.6208
  0
LINE
  8
0
 10
-18.3313
 20
53.6208
 11
-19.2011
 21
48.688
  0
LINE
  8
0
 10
-19.2011
 20
48.688
 11
-18.4007
 21
48.5468
  0
LINE
  8
0
 10
-18.4007
 20
48.5468
 11
-19.0085
 21
45.0999
  0
LINE
  8
0
 10
-19.0085
 20
45.0999
 11
-19.8089
 21
45.2411
  0
LINE
  8
0
 10
-19.8089
 20
45.2411
 11
-19.9818
 21
44.2607
  0
LINE
  8
0
 10
-19.9818
 20
44.2607
 11
-33.7691
 21
46.6918
  0
LINE
  8
0
 10
19.8089
 20
45.2411
 11
19.0085
 21
45.0999
  0
LINE
  8
0
 10
19.0085
 20
45.0999
 11
18.4007
 21
48.5468
  0
LINE
  8
0
 10
18.4007
 20
48.5468
 11
19.2011
 21
48.688
  0
LINE
  8
0
 10
19.2011
 20
48.688
 11
18.3313
 21
53.6208
  0
LINE
  8
0
 10
18.3313
 20
53.6208
 11
17.5309
 21
53.4796
  0
LINE
  8
0
 10
17.5309
 20
53.4796
 11
16.9231
 21
56.9266
  0
LINE
  8
0
 10
16.9231
 20
56.9266
 11
17.7235
 21
57.0677
  0
LINE
  8
0
 10
17.7235
 20
57.0677
 11
17.5507
 21
58.048
  0
LINE
  8
0
 10
17.5507
 20
58.048
 11
31.338
 21
60.4791
  0
LINE
  8
0
 10
31.338
 20
60.4791
 11
31.5108
 21
59.4988
  0
LINE
  8
0
 10
31.5108
 20
59.4988
 11
32.3113
 21
59.6399
  0
LINE
  8
0
 10
32.3113
 20
59.6399
 11
32.9191
 21
56.193
  0
LINE
  8
0
 10
32.9191
 20
56.193
 11
32.1186
 21
56.0518
  0
LINE
  8
0
 10
32.1186
 20
56.0518
 11
32.9884
 21
51.1191
  0
LINE
  8
0
 10
32.9884
 20
51.1191
 11
33.7889
 21
51.2602
  0
LINE
  8
0
 10
33.7889
 20
51.2602
 11
34.3967
 21
47.8133
  0
LINE
  8
0
 10
34.3967
 20
47.8133
 11
33.5962
 21
47.6721
  0
LINE
  8
0
 10
33.5962
 20
47.6721
 11
33.7691
 21
46.6918
  0
LINE
  8
0
 10
33.7691
 20
46.6918
 11
19.9818
 21
44.2607
  0
LINE
  8
0
 10
19.9818
 20
44.2607
 11
19.8089
 21
45.2411
  0
LINE
  8
0
 10
-72.6881
 20
45.3801
 11
-72.5152
 21
46.3604
  0
LINE
  8
0
 10
-72.5152
 20
46.3604
 11
-73.3157
 21
46.5016
  0
LINE
  8
0
 10
-73.3157
 20
46.5016
 11
-72.7079
 21
49.9485
  0
LINE
  8
0
 10
-72.7079
 20
49.9485
 11
-71.9075
 21
49.8073
  0
LINE
  8
0
 10
-71.9075
 20
49.8073
 11
-71.0377
 21
54.7401
  0
LINE
  8
0
 10
-71.0377
 20
54.7401
 11
-71.8381
 21
54.8813
  0
LINE
  8
0
 10
-71.8381
 20
54.8813
 11
-71.2303
 21
58.3282
  0
LINE
  8
0
 10
-71.2303
 20
58.3282
 11
-70.4299
 21
58.1871
  0
LINE
  8
0
 10
-70.4299
 20
58.1871
 11
-70.257
 21
59.1674
  0
LINE
  8
0
 10
-70.257
 20
59.1674
 11
-56.4697
 21
56.7363
  0
LINE
  8
0
 10
-56.4697
 20
56.7363
 11
-56.6426
 21
55.756
  0
LINE
  8
0
 10
-56.6426
 20
55.756
 11
-55.8421
 21
55.6149
  0
LINE
  8
0
 10
-55.8421
 20
55.6149
 11
-56.4499
 21
52.1679
  0
LINE
  8
0
 10
-56.4499
 20
52.1679
 11
-57.2504
 21
52.3091
  0
LINE
  8
0
 10
-57.2504
 20
52.3091
 11
-58.1201
 21
47.3763
  0
LINE
  8
0
 10
-58.1201
 20
47.3763
 11
-57.3197
 21
47.2351
  0
LINE
  8
0
 10
-57.3197
 20
47.2351
 11
-57.9275
 21
43.7882
  0
LINE
  8
0
 10
-57.9275
 20
43.7882
 11
-58.7279
 21
43.9293
  0
LINE
  8
0
 10
-58.7279
 20
43.9293
 11
-58.9008
 21
42.949
  0
LINE
  8
0
 10
-58.9008
 20
42.949
 11
-72.6881
 21
45.3801
  0
LINE
  8
0
 10
58.7279
 20
43.9293
 11
57.9275
 21
43.7882
  0
LINE
  8
0
 10
57.9275
 20
43.7882
 11
57.3197
 21
47.2351
  0
LINE
  8
0
 10
57.3197
 20
47.2351
 11
58.1201
 21
47.3763
  0
LINE
  8
0
 10
58.1201
 20
47.3763
 11
57.2504
 21
52.3091
  0
LINE
  8
0
 10
57.2504
 20
52.3091
 11
56.4499
 21
52.1679
  0
LINE
  8
0
 10
56.4499
 20
52.1679
 11
55.8421
 21
55.6149
  0
LINE
  8
0
 10
55.8421
 20
55.6149
 11
56.6426
 21
55.756
  0
LINE
  8
0
 10
56.6426
 20
55.756
 11
56.4697
 21
56.7363
  0
LINE
  8
0
 10
56.4697
 20
56.7363
 11
70.257
 21
59.1674
  0
LINE
  8
0
 10
70.257
 20
59.1674
 11
70.4299
 21
58.1871
  0
LINE
  8
0
 10
70.4299
 20
58.1871
 11
71.2303
 21
58.3282
  0
LINE
  8
0
 10
71.2303
 20
58.3282
 11
71.8381
 21
54.8813
  0
LINE
  8
0
 10
71.8381
 20
54.8813
 11
71.0377
 21
54.7401
  0
LINE
  8
0
 10
71.0377
 20
54.7401
 11
71.9075
 21
49.8073
  0
LINE
  8
0
 10
71.9075
 20
49.8073
 11
72.7079
 21
49.9485
  0
LINE
  8
0
 10
72.7079
 20
49.9485
 11
73.3157
 21
46.5016
  0
LINE
  8
0
 10
73.3157
 20
46.5016
 11
72.5152
 21
46.3604
  0
LINE
  8
0
 10
72.5152
 20
46.3604
 11
72.6881
 21
45.3801
  0
LINE
  8
0
 10
72.6881
 20
45.3801
 11
58.9008
 21
42.949
  0
LINE
  8
0
 10
58.9008
 20
42.949
 11
58.7279
 21
43.9293
  0
LINE
  8
0
 10
-111.598
 20
44.1176
 11
-111.426
 21
45.0979
  0
LINE
  8
0
 10
-111.426
 20
45.0979
 11
-112.226
 21
45.2391
  0
LINE
  8
0
 10
-112.226
 20
45.2391
 11
-111.618
 21
48.686
  0
LINE
  8
0
 10
-111.618
 20
48.686
 11
-110.818
 21
48.5449
  0
LINE
  8
0
 10
-110.818
 20
48.5449
 11
-109.948
 21
53.4777
  0
LINE
  8
0
 10
-109.948
 20
53.4777
 11
-110.748
 21
53.6188
  0
LINE
  8
0
 10
-110.748
 20
53.6188
 11
-110.141
 21
57.0657
  0
LINE
  8
0
 10
-110.141
 20
57.0657
 11
-109.34
 21
56.9246
  0
LINE
  8
0
 10
-109.34
 20
56.9246
 11
-109.167
 21
57.9049
  0
LINE
  8
0
 10
-109.167
 20
57.9049
 11
-95.3801
 21
55.4739
  0
LINE
  8
0
 10
-95.3801
 20
55.4739
 11
-95.5529
 21
54.4935
  0
LINE
  8
0
 10
-95.5529
 20
54.4935
 11
-94.7525
 21
54.3524
  0
LINE
  8
0
 10
-94.7525
 20
54.3524
 11
-95.3603
 21
50.9055
  0
LINE
  8
0
 10
-95.3603
 20
50.9055
 11
-96.1607
 21
51.0466
  0
LINE
  8
0
 10
-96.1607
 20
51.0466
 11
-97.0305
 21
46.1138
  0
LINE
  8
0
 10
-97.0305
 20
46.1138
 11
-96.2301
 21
45.9727
  0
LINE
  8
0
 10
-96.2301
 20
45.9727
 11
-96.8379
 21
42.5257
  0
LINE
  8
0
 10
-96.8379
 20
42.5257
 11
-97.6383
 21
42.6669
  0
LINE
  8
0
 10
-97.6383
 20
42.6669
 11
-97.8112
 21
41.6865
  0
LINE
  8
0
 10
-97.8112
 20
41.6865
 11
-111.598
 21
44.1176
  0
LINE
  8
0
 10
97.6383
 20
42.6669
 11
96.8379
 21
42.5257
  0
LINE
  8
0
 10
96.8379
 20
42.5257
 11
96.2301
 21
45.9727
  0
LINE
  8
0
 10
96.2301
 20
45.9727
 11
97.0305
 21
46.1138
  0
LINE
  8
0
 10
97.0305
 20
46.1138
 11
96.1607
 21
51.0466
  0
LINE
  8
0
 10
96.1607
 20
51.0466
 11
95.3603
 21
50.9055
  0
LINE
  8
0
 10
95.3603
 20
50.9055
 11
94.7525
 21
54.3524
  0
LINE
  8
0
 10
94.7525
 20
54.3524
 11
95.5529
 21
54.4935
  0
LINE
  8
0
 10
95.5529
 20
54.4935
 11
95.3801
 21
55.4739
  0
LINE
  8
0
 10
95.3801
 20
55.4739
 11
109.167
 21
57.9049
  0
LINE
  8
0
 10
109.167
 20
57.9049
 11
109.34
 21
56.9246
  0
LINE
  8
0
 10
109.34
 20
56.9246
 11
110.141
 21
57.0657
  0
LINE
  8
0
 10
110.141
 20
57.0657
 11
110.748
 21
53.6188
  0
LINE
  8
0
 10
110.748
 20
53.6188
 11
109.948
 21
53.4777
  0
LINE
  8
0
 10
109.948
 20
53.4777
 11
110.818
 21
48.5449
  0
LINE
  8
0
 10
110.818
 20
48.5449
 11
111.618
 21
48.686
  0
LINE
  8
0
 10
111.618
 20
48.686
 11
112.226
 21
45.2391
  0
LINE
  8
0
 10
112.226
 20
45.2391
 11
111.426
 21
45.0979
  0
LINE
  8
0
 10
111.426
 20
45.0979
 11
111.598
 21
44.1176
  0
LINE
  8
0
 10
111.598
 20
44.1176
 11
97.8112
 21
41.6865
  0
LINE
  8
0
 10
97.8112
 20
41.6865
 11
97.6383
 21
42.6669
  0
LINE
  8
0
 10
-92.3169
 20
43.764
 11
-92.1441
 21
44.7444
  0
LINE
  8
0
 10
-92.1441
 20
44.7444
 11
-92.9445
 21
44.8855
  0
LINE
  8
0
 10
-92.9445
 20
44.8855
 11
-92.3367
 21
48.3324
  0
LINE
  8
0
 10
-92.3367
 20
48.3324
 11
-91.5363
 21
48.1913
  0
LINE
  8
0
 10
-91.5363
 20
48.1913
 11
-90.6665
 21
53.1241
  0
LINE
  8
0
 10
-90.6665
 20
53.1241
 11
-91.4669
 21
53.2652
  0
LINE
  8
0
 10
-91.4669
 20
53.2652
 11
-90.8592
 21
56.7122
  0
LINE
  8
0
 10
-90.8592
 20
56.7122
 11
-90.0587
 21
56.571
  0
LINE
  8
0
 10
-90.0587
 20
56.571
 11
-89.8859
 21
57.5514
  0
LINE
  8
0
 10
-89.8859
 20
57.5514
 11
-76.0986
 21
55.1203
  0
LINE
  8
0
 10
-76.0986
 20
55.1203
 11
-76.2714
 21
54.14
  0
LINE
  8
0
 10
-76.2714
 20
54.14
 11
-75.471
 21
53.9988
  0
LINE
  8
0
 10
-75.471
 20
53.9988
 11
-76.0788
 21
50.5519
  0
LINE
  8
0
 10
-76.0788
 20
50.5519
 11
-76.8792
 21
50.693
  0
LINE
  8
0
 10
-76.8792
 20
50.693
 11
-77.749
 21
45.7602
  0
LINE
  8
0
 10
-77.749
 20
45.7602
 11
-76.9485
 21
45.6191
  0
LINE
  8
0
 10
-76.9485
 20
45.6191
 11
-77.5563
 21
42.1722
  0
LINE
  8
0
 10
-77.5563
 20
42.1722
 11
-78.3568
 21
42.3133
  0
LINE
  8
0
 10
-78.3568
 20
42.3133
 11
-78.5296
 21
41.333
  0
LINE
  8
0
 10
-78.5296
 20
41.333
 11
-92.3169
 21
43.764
  0
LINE
  8
0
 10
78.3568
 20
42.3133
 11
77.5563
 21
42.1722
  0
LINE
  8
0
 10
77.5563
 20
42.1722
 11
76.9485
 21
45.6191
  0
LINE
  8
0
 10
76.9485
 20
45.6191
 11
77.749
 21
45.7602
  0
LINE
  8
0
 10
77.749
 20
45.7602
 11
76.8792
 21
50.693
  0
LINE
  8
0
 10
76.8792
 20
50.693
 11
76.0788
 21
50.5519
  0
LINE
  8
0
 10
76.0788
 20
50.5519
 11
75.471
 21
53.9988
  0
LINE
  8
0
 10
75.471
 20
53.9988
 11
76.2714
 21
54.14
  0
LINE
  8
0
 10
76.2714
 20
54.14
 11
76.0986
 21
55.1203
  0
LINE
  8
0
 10
76.0986
 20
55.1203
 11
89.8859
 21
57.5514
  0
LINE
  8
0
 10
89.8859
 20
57.5514
 11
90.0587
 21
56.571
  0
LINE
  8
0
 10
90.0587
 20
56.571
 11
90.8592
 21
56.7122
  0
LINE
  8
0
 10
90.8592
 20
56.7122
 11
91.4669
 21
53.2652
  0
LINE
  8
0
 10
91.4669
 20
53.2652
 11
90.6665
 21
53.1241
  0
LINE
  8
0
 10
90.6665
 20
53.1241
 11
91.5363
 21
48.1913
  0
LINE
  8
0
 10
91.5363
 20
48.1913
 11
92.3367
 21
48.3324
  0
LINE
  8
0
 10
92.3367
 20
48.3324
 11
92.9445
 21
44.8855
  0
LINE
  8
0
 10
92.9445
 20
44.8855
 11
92.1441
 21
44.7444
  0
LINE
  8
0
 10
92.1441
 20
44.7444
 11
92.3169
 21
43.764
  0
LINE
  8
0
 10
92.3169
 20
43.764
 11
78.5296
 21
41.333
  0
LINE
  8
0
 10
78.5296
 20
41.333
 11
78.3568
 21
42.3133
  0
LINE
  8
0
 10
41.0092
 20
34.7125
 11
40.2088
 21
34.5714
  0
LINE
  8
0
 10
40.2088
 20
34.5714
 11
39.601
 21
38.0183
  0
LINE
  8
0
 10
39.601
 20
38.0183
 11
40.4015
 21
38.1594
  0
LINE
  8
0
 10
40.4015
 20
38.1594
 11
39.5317
 21
43.0922
  0
LINE
  8
0
 10
39.5317
 20
43.0922
 11
38.7312
 21
42.9511
  0
LINE
  8
0
 10
38.7312
 20
42.9511
 11
38.1234
 21
46.398
  0
LINE
  8
0
 10
38.1234
 20
46.398
 11
38.9239
 21
46.5392
  0
LINE
  8
0
 10
38.9239
 20
46.5392
 11
38.751
 21
47.5195
  0
LINE
  8
0
 10
38.751
 20
47.5195
 11
52.5383
 21
49.9505
  0
LINE
  8
0
 10
52.5383
 20
49.9505
 11
52.7112
 21
48.9702
  0
LINE
  8
0
 10
52.7112
 20
48.9702
 11
53.5116
 21
49.1114
  0
LINE
  8
0
 10
53.5116
 20
49.1114
 11
54.1194
 21
45.6644
  0
LINE
  8
0
 10
54.1194
 20
45.6644
 11
53.319
 21
45.5233
  0
LINE
  8
0
 10
53.319
 20
45.5233
 11
54.1888
 21
40.5905
  0
LINE
  8
0
 10
54.1888
 20
40.5905
 11
54.9892
 21
40.7316
  0
LINE
  8
0
 10
54.9892
 20
40.7316
 11
55.597
 21
37.2847
  0
LINE
  8
0
 10
55.597
 20
37.2847
 11
54.7966
 21
37.1436
  0
LINE
  8
0
 10
54.7966
 20
37.1436
 11
54.9694
 21
36.1632
  0
LINE
  8
0
 10
54.9694
 20
36.1632
 11
41.1821
 21
33.7322
  0
LINE
  8
0
 10
41.1821
 20
33.7322
 11
41.0092
 21
34.7125
  0
LINE
  8
0
 10
-54.9694
 20
36.1632
 11
-54.7966
 21
37.1436
  0
LINE
  8
0
 10
-54.7966
 20
37.1436
 11
-55.597
 21
37.2847
  0
LINE
  8
0
 10
-55.597
 20
37.2847
 11
-54.9892
 21
40.7316
  0
LINE
  8
0
 10
-54.9892
 20
40.7316
 11
-54.1888
 21
40.5905
  0
LINE
  8
0
 10
-54.1888
 20
40.5905
 11
-53.319
 21
45.5233
  0
LINE
  8
0
 10
-53.319
 20
45.5233
 11
-54.1194
 21
45.6644
  0
LINE
  8
0
 10
-54.1194
 20
45.6644
 11
-53.5116
 21
49.1114
  0
LINE
  8
0
 10
-53.5116
 20
49.1114
 11
-52.7112
 21
48.9702
  0
LINE
  8
0
 10
-52.7112
 20
48.9702
 11
-52.5383
 21
49.9505
  0
LINE
  8
0
 10
-52.5383
 20
49.9505
 11
-38.751
 21
47.5195
  0
LINE
  8
0
 10
-38.751
 20
47.5195
 11
-38.9239
 21
46.5392
  0
LINE
  8
0
 10
-38.9239
 20
46.5392
 11
-38.1234
 21
46.398
  0
LINE
  8
0
 10
-38.1234
 20
46.398
 11
-38.7312
 21
42.9511
  0
LINE
  8
0
 10
-38.7312
 20
42.9511
 11
-39.5317
 21
43.0922
  0
LINE
  8
0
 10
-39.5317
 20
43.0922
 11
-40.4015
 21
38.1594
  0
LINE
  8
0
 10
-40.4015
 20
38.1594
 11
-39.601
 21
38.0183
  0
LINE
  8
0
 10
-39.601
 20
38.0183
 11
-40.2088
 21
34.5714
  0
LINE
  8
0
 10
-40.2088
 20
34.5714
 11
-41.0092
 21
34.7125
  0
LINE
  8
0
 10
-41.0092
 20
34.7125
 11
-41.1821
 21
33.7322
  0
LINE
  8
0
 10
-41.1821
 20
33.7322
 11
-54.9694
 21
36.1632
  0
LINE
  8
0
 10
119.707
 20
27.2143
 11
118.906
 21
27.0732
  0
LINE
  8
0
 10
118.906
 20
27.0732
 11
118.299
 21
30.5201
  0
LINE
  8
0
 10
118.299
 20
30.5201
 11
119.099
 21
30.6612
  0
LINE
  8
0
 10
119.099
 20
30.6612
 11
118.229
 21
35.594
  0
LINE
  8
0
 10
118.229
 20
35.594
 11
117.429
 21
35.4529
  0
LINE
  8
0
 10
117.429
 20
35.4529
 11
116.821
 21
38.8998
  0
LINE
  8
0
 10
116.821
 20
38.8998
 11
117.622
 21
39.041
  0
LINE
  8
0
 10
117.622
 20
39.041
 11
117.449
 21
40.0213
  0
LINE
  8
0
 10
117.449
 20
40.0213
 11
131.236
 21
42.4523
  0
LINE
  8
0
 10
131.236
 20
42.4523
 11
131.409
 21
41.472
  0
LINE
  8
0
 10
131.409
 20
41.472
 11
132.209
 21
41.6132
  0
LINE
  8
0
 10
132.209
 20
41.6132
 11
132.817
 21
38.1662
  0
LINE
  8
0
 10
132.817
 20
38.1662
 11
132.017
 21
38.0251
  0
LINE
  8
0
 10
132.017
 20
38.0251
 11
132.886
 21
33.0923
  0
LINE
  8
0
 10
132.886
 20
33.0923
 11
133.687
 21
33.2334
  0
LINE
  8
0
 10
133.687
 20
33.2334
 11
134.295
 21
29.7865
  0
LINE
  8
0
 10
134.295
 20
29.7865
 11
133.494
 21
29.6454
  0
LINE
  8
0
 10
133.494
 20
29.6454
 11
133.667
 21
28.665
  0
LINE
  8
0
 10
133.667
 20
28.665
 11
119.88
 21
26.234
  0
LINE
  8
0
 10
119.88
 20
26.234
 11
119.707
 21
27.2143
  0
LINE
  8
0
 10
-133.667
 20
28.665
 11
-133.494
 21
29.6454
  0
LINE
  8
0
 10
-133.494
 20
29.6454
 11
-134.295
 21
29.7865
  0
LINE
  8
0
 10
-134.295
 20
29.7865
 11
-133.687
 21
33.2334
  0
LINE
  8
0
 10
-133.687
 20
33.2334
 11
-132.886
 21
33.0923
  0
LINE
  8
0
 10
-132.886
 20
33.0923
 11
-132.017
 21
38.0251
  0
LINE
  8
0
 10
-132.017
 20
38.0251
 11
-132.817
 21
38.1662
  0
LINE
  8
0
 10
-132.817
 20
38.1662
 11
-132.209
 21
41.6132
  0
LINE
  8
0
 10
-132.209
 20
41.6132
 11
-131.409
 21
41.472
  0
LINE
  8
0
 10
-131.409
 20
41.472
 11
-131.236
 21
42.4523
  0
LINE
  8
0
 10
-131.236
 20
42.4523
 11
-117.449
 21
40.0213
  0
LINE
  8
0
 10
-117.449
 20
40.0213
 11
-117.622
 21
39.041
  0
LINE
  8
0
 10
-117.622
 20
39.041
 11
-116.821
 21
38.8998
  0
LINE
  8
0
 10
-116.821
 20
38.8998
 11
-117.429
 21
35.4529
  0
LINE
  8
0
 10
-117.429
 20
35.4529
 11
-118.229
 21
35.594
  0
LINE
  8
0
 10
-118.229
 20
35.594
 11
-119.099
 21
30.6612
  0
LINE
  8
0
 10
-119.099
 20
30.6612
 11
-118.299
 21
30.5201
  0
LINE
  8
0
 10
-118.299
 20
30.5201
 11
-118.906
 21
27.0732
  0
LINE
  8
0
 10
-118.906
 20
27.0732
 11
-119.707
 21
27.2143
  0
LINE
  8
0
 10
-119.707
 20
27.2143
 11
-119.88
 21
26.234
  0
LINE
  8
0
 10
-119.88
 20
26.234
 11
-133.667
 21
28.665
  0
LINE
  8
0
 10
-37.0771
 20
27.9312
 11
-36.9042
 21
28.9115
  0
LINE
  8
0
 10
-36.9042
 20
28.9115
 11
-37.7047
 21
29.0527
  0
LINE
  8
0
 10
-37.7047
 20
29.0527
 11
-37.0969
 21
32.4996
  0
LINE
  8
0
 10
-37.0969
 20
32.4996
 11
-36.2964
 21
32.3585
  0
LINE
  8
0
 10
-36.2964
 20
32.3585
 11
-35.4266
 21
37.2913
  0
LINE
  8
0
 10
-35.4266
 20
37.2913
 11
-36.2271
 21
37.4324
  0
LINE
  8
0
 10
-36.2271
 20
37.4324
 11
-35.6193
 21
40.8793
  0
LINE
  8
0
 10
-35.6193
 20
40.8793
 11
-34.8188
 21
40.7382
  0
LINE
  8
0
 10
-34.8188
 20
40.7382
 11
-34.646
 21
41.7185
  0
LINE
  8
0
 10
-34.646
 20
41.7185
 11
-20.8587
 21
39.2874
  0
LINE
  8
0
 10
-20.8587
 20
39.2874
 11
-21.0315
 21
38.3071
  0
LINE
  8
0
 10
-21.0315
 20
38.3071
 11
-20.2311
 21
38.166
  0
LINE
  8
0
 10
-20.2311
 20
38.166
 11
-20.8389
 21
34.719
  0
LINE
  8
0
 10
-20.8389
 20
34.719
 11
-21.6393
 21
34.8602
  0
LINE
  8
0
 10
-21.6393
 20
34.8602
 11
-22.5091
 21
29.9274
  0
LINE
  8
0
 10
-22.5091
 20
29.9274
 11
-21.7087
 21
29.7863
  0
LINE
  8
0
 10
-21.7087
 20
29.7863
 11
-22.3165
 21
26.3393
  0
LINE
  8
0
 10
-22.3165
 20
26.3393
 11
-23.1169
 21
26.4805
  0
LINE
  8
0
 10
-23.1169
 20
26.4805
 11
-23.2897
 21
25.5001
  0
LINE
  8
0
 10
-23.2897
 20
25.5001
 11
-37.0771
 21
27.9312
  0
LINE
  8
0
 10
23.1169
 20
26.4805
 11
22.3165
 21
26.3393
  0
LINE
  8
0
 10
22.3165
 20
26.3393
 11
21.7087
 21
29.7863
  0
LINE
  8
0
 10
21.7087
 20
29.7863
 11
22.5091
 21
29.9274
  0
LINE
  8
0
 10
22.5091
 20
29.9274
 11
21.6393
 21
34.8602
  0
LINE
  8
0
 10
21.6393
 20
34.8602
 11
20.8389
 21
34.719
  0
LINE
  8
0
 10
20.8389
 20
34.719
 11
20.2311
 21
38.166
  0
LINE
  8
0
 10
20.2311
 20
38.166
 11
21.0315
 21
38.3071
  0
LINE
  8
0
 10
21.0315
 20
38.3071
 11
20.8587
 21
39.2874
  0
LINE
  8
0
 10
20.8587
 20
39.2874
 11
34.646
 21
41.7185
  0
LINE
  8
0
 10
34.646
 20
41.7185
 11
34.8188
 21
40.7382
  0
LINE
  8
0
 10
34.8188
 20
40.7382
 11
35.6193
 21
40.8793
  0
LINE
  8
0
 10
35.6193
 20
40.8793
 11
36.2271
 21
37.4324
  0
LINE
  8
0
 10
36.2271
 20
37.4324
 11
35.4266
 21
37.2913
  0
LINE
  8
0
 10
35.4266
 20
37.2913
 11
36.2964
 21
32.3585
  0
LINE
  8
0
 10
36.2964
 20
32.3585
 11
37.0969
 21
32.4996
  0
LINE
  8
0
 10
37.0969
 20
32.4996
 11
37.7047
 21
29.0527
  0
LINE
  8
0
 10
37.7047
 20
29.0527
 11
36.9042
 21
28.9115
  0
LINE
  8
0
 10
36.9042
 20
28.9115
 11
37.0771
 21
27.9312
  0
LINE
  8
0
 10
37.0771
 20
27.9312
 11
23.2897
 21
25.5001
  0
LINE
  8
0
 10
23.2897
 20
25.5001
 11
23.1169
 21
26.4805
  0
LINE
  8
0
 10
62.0359
 20
25.1688
 11
61.2355
 21
25.0276
  0
LINE
  8
0
 10
61.2355
 20
25.0276
 11
60.6277
 21
28.4746
  0
LINE
  8
0
 10
60.6277
 20
28.4746
 11
61.4281
 21
28.6157
  0
LINE
  8
0
 10
61.4281
 20
28.6157
 11
60.5584
 21
33.5485
  0
LINE
  8
0
 10
60.5584
 20
33.5485
 11
59.7579
 21
33.4073
  0
LINE
  8
0
 10
59.7579
 20
33.4073
 11
59.1501
 21
36.8543
  0
LINE
  8
0
 10
59.1501
 20
36.8543
 11
59.9506
 21
36.9954
  0
LINE
  8
0
 10
59.9506
 20
36.9954
 11
59.7777
 21
37.9757
  0
LINE
  8
0
 10
59.7777
 20
37.9757
 11
73.565
 21
40.4068
  0
LINE
  8
0
 10
73.565
 20
40.4068
 11
73.7379
 21
39.4265
  0
LINE
  8
0
 10
73.7379
 20
39.4265
 11
74.5383
 21
39.5676
  0
LINE
  8
0
 10
74.5383
 20
39.5676
 11
75.1461
 21
36.1207
  0
LINE
  8
0
 10
75.1461
 20
36.1207
 11
74.3457
 21
35.9796
  0
LINE
  8
0
 10
74.3457
 20
35.9796
 11
75.2155
 21
31.0468
  0
LINE
  8
0
 10
75.2155
 20
31.0468
 11
76.0159
 21
31.1879
  0
LINE
  8
0
 10
76.0159
 20
31.1879
 11
76.6237
 21
27.741
  0
LINE
  8
0
 10
76.6237
 20
27.741
 11
75.8232
 21
27.5998
  0
LINE
  8
0
 10
75.8232
 20
27.5998
 11
75.9961
 21
26.6195
  0
LINE
  8
0
 10
75.9961
 20
26.6195
 11
62.2088
 21
24.1884
  0
LINE
  8
0
 10
62.2088
 20
24.1884
 11
62.0359
 21
25.1688
  0
LINE
  8
0
 10
-75.9961
 20
26.6195
 11
-75.8232
 21
27.5998
  0
LINE
  8
0
 10
-75.8232
 20
27.5998
 11
-76.6237
 21
27.741
  0
LINE
  8
0
 10
-76.6237
 20
27.741
 11
-76.0159
 21
31.1879
  0
LINE
  8
0
 10
-76.0159
 20
31.1879
 11
-75.2155
 21
31.0468
  0
LINE
  8
0
 10
-75.2155
 20
31.0468
 11
-74.3457
 21
35.9796
  0
LINE
  8
0
 10
-74.3457
 20
35.9796
 11
-75.1461
 21
36.1207
  0
LINE
  8
0
 10
-75.1461
 20
36.1207
 11
-74.5383
 21
39.5676
  0
LINE
  8
0
 10
-74.5383
 20
39.5676
 11
-73.7379
 21
39.4265
  0
LINE
  8
0
 10
-73.7379
 20
39.4265
 11
-73.565
 21
40.4068
  0
LINE
  8
0
 10
-73.565
 20
40.4068
 11
-59.7777
 21
37.9757
  0
LINE
  8
0
 10
-59.7777
 20
37.9757
 11
-59.9506
 21
36.9954
  0
LINE
  8
0
 10
-59.9506
 20
36.9954
 11
-59.1501
 21
36.8543
  0
LINE
  8
0
 10
-59.1501
 20
36.8543
 11
-59.7579
 21
33.4073
  0
LINE
  8
0
 10
-59.7579
 20
33.4073
 11
-60.5584
 21
33.5485
  0
LINE
  8
0
 10
-60.5584
 20
33.5485
 11
-61.4281
 21
28.6157
  0
LINE
  8
0
 10
-61.4281
 20
28.6157
 11
-60.6277
 21
28.4746
  0
LINE
  8
0
 10
-60.6277
 20
28.4746
 11
-61.2355
 21
25.0276
  0
LINE
  8
0
 10
-61.2355
 20
25.0276
 11
-62.0359
 21
25.1688
  0
LINE
  8
0
 10
-62.0359
 20
25.1688
 11
-62.2088
 21
24.1884
  0
LINE
  8
0
 10
-62.2088
 20
24.1884
 11
-75.9961
 21
26.6195
  0
LINE
  8
0
 10
100.946
 20
23.9063
 11
100.146
 21
23.7652
  0
LINE
  8
0
 10
100.146
 20
23.7652
 11
99.5381
 21
27.2121
  0
LINE
  8
0
 10
99.5381
 20
27.2121
 11
100.339
 21
27.3532
  0
LINE
  8
0
 10
100.339
 20
27.3532
 11
99.4687
 21
32.286
  0
LINE
  8
0
 10
99.4687
 20
32.286
 11
98.6683
 21
32.1449
  0
LINE
  8
0
 10
98.6683
 20
32.1449
 11
98.0605
 21
35.5918
  0
LINE
  8
0
 10
98.0605
 20
35.5918
 11
98.8609
 21
35.733
  0
LINE
  8
0
 10
98.8609
 20
35.733
 11
98.6881
 21
36.7133
  0
LINE
  8
0
 10
98.6881
 20
36.7133
 11
112.475
 21
39.1443
  0
LINE
  8
0
 10
112.475
 20
39.1443
 11
112.648
 21
38.164
  0
LINE
  8
0
 10
112.648
 20
38.164
 11
113.449
 21
38.3052
  0
LINE
  8
0
 10
113.449
 20
38.3052
 11
114.056
 21
34.8582
  0
LINE
  8
0
 10
114.056
 20
34.8582
 11
113.256
 21
34.7171
  0
LINE
  8
0
 10
113.256
 20
34.7171
 11
114.126
 21
29.7843
  0
LINE
  8
0
 10
114.126
 20
29.7843
 11
114.926
 21
29.9254
  0
LINE
  8
0
 10
114.926
 20
29.9254
 11
115.534
 21
26.4785
  0
LINE
  8
0
 10
115.534
 20
26.4785
 11
114.734
 21
26.3374
  0
LINE
  8
0
 10
114.734
 20
26.3374
 11
114.906
 21
25.357
  0
LINE
  8
0
 10
114.906
 20
25.357
 11
101.119
 21
22.926
  0
LINE
  8
0
 10
101.119
 20
22.926
 11
100.946
 21
23.9063
  0
LINE
  8
0
 10
-114.906
 20
25.357
 11
-114.734
 21
26.3374
  0
LINE
  8
0
 10
-114.734
 20
26.3374
 11
-115.534
 21
26.4785
  0
LINE
  8
0
 10
-115.534
 20
26.4785
 11
-114.926
 21
29.9254
  0
LINE
  8
0
 10
-114.926
 20
29.9254
 11
-114.126
 21
29.7843
  0
LINE
  8
0
 10
-114.126
 20
29.7843
 11
-113.256
 21
34.7171
  0
LINE
  8
0
 10
-113.256
 20
34.7171
 11
-114.056
 21
34.8582
  0
LINE
  8
0
 10
-114.056
 20
34.8582
 11
-113.449
 21
38.3052
  0
LINE
  8
0
 10
-113.449
 20
38.3052
 11
-112.648
 21
38.164
  0
LINE
  8
0
 10
-112.648
 20
38.164
 11
-112.475
 21
39.1443
  0
LINE
  8
0
 10
-112.475
 20
39.1443
 11
-98.6881
 21
36.7133
  0
LINE
  8
0
 10
-98.6881
 20
36.7133
 11
-98.8609
 21
35.733
  0
LINE
  8
0
 10
-98.8609
 20
35.733
 11
-98.0605
 21
35.5918
  0
LINE
  8
0
 10
-98.0605
 20
35.5918
 11
-98.6683
 21
32.1449
  0
LINE
  8
0
 10
-98.6683
 20
32.1449
 11
-99.4687
 21
32.286
  0
LINE
  8
0
 10
-99.4687
 20
32.286
 11
-100.339
 21
27.3532
  0
LINE
  8
0
 10
-100.339
 20
27.3532
 11
-99.5381
 21
27.2121
  0
LINE
  8
0
 10
-99.5381
 20
27.2121
 11
-100.146
 21
23.7652
  0
LINE
  8
0
 10
-100.146
 20
23.7652
 11
-100.946
 21
23.9063
  0
LINE
  8
0
 10
-100.946
 20
23.9063
 11
-101.119
 21
22.926
  0
LINE
  8
0
 10
-101.119
 20
22.926
 11
-114.906
 21
25.357
  0
LINE
  8
0
 10
-95.6249
 20
25.0035
 11
-95.4521
 21
25.9838
  0
LINE
  8
0
 10
-95.4521
 20
25.9838
 11
-96.2525
 21
26.1249
  0
LINE
  8
0
 10
-96.2525
 20
26.1249
 11
-95.6447
 21
29.5719
  0
LINE
  8
0
 10
-95.6447
 20
29.5719
 11
-94.8443
 21
29.4307
  0
LINE
  8
0
 10
-94.8443
 20
29.4307
 11
-93.9745
 21
34.3635
  0
LINE
  8
0
 10
-93.9745
 20
34.3635
 11
-94.7749
 21
34.5047
  0
LINE
  8
0
 10
-94.7749
 20
34.5047
 11
-94.1672
 21
37.9516
  0
LINE
  8
0
 10
-94.1672
 20
37.9516
 11
-93.3667
 21
37.8105
  0
LINE
  8
0
 10
-93.3667
 20
37.8105
 11
-93.1938
 21
38.7908
  0
LINE
  8
0
 10
-93.1938
 20
38.7908
 11
-79.4065
 21
36.3597
  0
LINE
  8
0
 10
-79.4065
 20
36.3597
 11
-79.5794
 21
35.3794
  0
LINE
  8
0
 10
-79.5794
 20
35.3794
 11
-78.779
 21
35.2382
  0
LINE
  8
0
 10
-78.779
 20
35.2382
 11
-79.3867
 21
31.7913
  0
LINE
  8
0
 10
-79.3867
 20
31.7913
 11
-80.1872
 21
31.9324
  0
LINE
  8
0
 10
-80.1872
 20
31.9324
 11
-81.057
 21
26.9997
  0
LINE
  8
0
 10
-81.057
 20
26.9997
 11
-80.2565
 21
26.8585
  0
LINE
  8
0
 10
-80.2565
 20
26.8585
 11
-80.8643
 21
23.4116
  0
LINE
  8
0
 10
-80.8643
 20
23.4116
 11
-81.6648
 21
23.5527
  0
LINE
  8
0
 10
-81.6648
 20
23.5527
 11
-81.8376
 21
22.5724
  0
LINE
  8
0
 10
-81.8376
 20
22.5724
 11
-95.6249
 21
25.0035
  0
LINE
  8
0
 10
81.6648
 20
23.5527
 11
80.8643
 21
23.4116
  0
LINE
  8
0
 10
80.8643
 20
23.4116
 11
80.2565
 21
26.8585
  0
LINE
  8
0
 10
80.2565
 20
26.8585
 11
81.057
 21
26.9997
  0
LINE
  8
0
 10
81.057
 20
26.9997
 11
80.1872
 21
31.9324
  0
LINE
  8
0
 10
80.1872
 20
31.9324
 11
79.3867
 21
31.7913
  0
LINE
  8
0
 10
79.3867
 20
31.7913
 11
78.779
 21
35.2382
  0
LINE
  8
0
 10
78.779
 20
35.2382
 11
79.5794
 21
35.3794
  0
LINE
  8
0
 10
79.5794
 20
35.3794
 11
79.4065
 21
36.3597
  0
LINE
  8
0
 10
79.4065
 20
36.3597
 11
93.1938
 21
38.7908
  0
LINE
  8
0
 10
93.1938
 20
38.7908
 11
93.3667
 21
37.8105
  0
LINE
  8
0
 10
93.3667
 20
37.8105
 11
94.1672
 21
37.9516
  0
LINE
  8
0
 10
94.1672
 20
37.9516
 11
94.7749
 21
34.5047
  0
LINE
  8
0
 10
94.7749
 20
34.5047
 11
93.9745
 21
34.3635
  0
LINE
  8
0
 10
93.9745
 20
34.3635
 11
94.8443
 21
29.4307
  0
LINE
  8
0
 10
94.8443
 20
29.4307
 11
95.6447
 21
29.5719
  0
LINE
  8
0
 10
95.6447
 20
29.5719
 11
96.2525
 21
26.1249
  0
LINE
  8
0
 10
96.2525
 20
26.1249
 11
95.4521
 21
25.9838
  0
LINE
  8
0
 10
95.4521
 20
25.9838
 11
95.6249
 21
25.0035
  0
LINE
  8
0
 10
95.6249
 20
25.0035
 11
81.8376
 21
22.5724
  0
LINE
  8
0
 10
81.8376
 20
22.5724
 11
81.6648
 21
23.5527
  0
LINE
  8
0
 10
44.3172
 20
15.9519
 11
43.5168
 21
15.8108
  0
LINE
  8
0
 10
43.5168
 20
15.8108
 11
42.909
 21
19.2577
  0
LINE
  8
0
 10
42.909
 20
19.2577
 11
43.7095
 21
19.3988
  0
LINE
  8
0
 10
43.7095
 20
19.3988
 11
42.8397
 21
24.3316
  0
LINE
  8
0
 10
42.8397
 20
24.3316
 11
42.0392
 21
24.1905
  0
LINE
  8
0
 10
42.0392
 20
24.1905
 11
41.4314
 21
27.6374
  0
LINE
  8
0
 10
41.4314
 20
27.6374
 11
42.2319
 21
27.7786
  0
LINE
  8
0
 10
42.2319
 20
27.7786
 11
42.059
 21
28.7589
  0
LINE
  8
0
 10
42.059
 20
28.7589
 11
55.8463
 21
31.19
  0
LINE
  8
0
 10
55.8463
 20
31.19
 11
56.0192
 21
30.2096
  0
LINE
  8
0
 10
56.0192
 20
30.2096
 11
56.8196
 21
30.3508
  0
LINE
  8
0
 10
56.8196
 20
30.3508
 11
57.4274
 21
26.9039
  0
LINE
  8
0
 10
57.4274
 20
26.9039
 11
56.627
 21
26.7627
  0
LINE
  8
0
 10
56.627
 20
26.7627
 11
57.4968
 21
21.8299
  0
LINE
  8
0
 10
57.4968
 20
21.8299
 11
58.2972
 21
21.9711
  0
LINE
  8
0
 10
58.2972
 20
21.9711
 11
58.905
 21
18.5241
  0
LINE
  8
0
 10
58.905
 20
18.5241
 11
58.1046
 21
18.383
  0
LINE
  8
0
 10
58.1046
 20
18.383
 11
58.2774
 21
17.4027
  0
LINE
  8
0
 10
58.2774
 20
17.4027
 11
44.4901
 21
14.9716
  0
LINE
  8
0
 10
44.4901
 20
14.9716
 11
44.3172
 21
15.9519
  0
LINE
  8
0
 10
-58.2774
 20
17.4027
 11
-58.1046
 21
18.383
  0
LINE
  8
0
 10
-58.1046
 20
18.383
 11
-58.905
 21
18.5241
  0
LINE
  8
0
 10
-58.905
 20
18.5241
 11
-58.2972
 21
21.9711
  0
LINE
  8
0
 10
-58.2972
 20
21.9711
 11
-57.4968
 21
21.8299
  0
LINE
  8
0
 10
-57.4968
 20
21.8299
 11
-56.627
 21
26.7627
  0
LINE
  8
0
 10
-56.627
 20
26.7627
 11
-57.4274
 21
26.9039
  0
LINE
  8
0
 10
-57.4274
 20
26.9039
 11
-56.8196
 21
30.3508
  0
LINE
  8
0
 10
-56.8196
 20
30.3508
 11
-56.0192
 21
30.2096
  0
LINE
  8
0
 10
-56.0192
 20
30.2096
 11
-55.8463
 21
31.19
  0
LINE
  8
0
 10
-55.8463
 20
31.19
 11
-42.059
 21
28.7589
  0
LINE
  8
0
 10
-42.059
 20
28.7589
 11
-42.2319
 21
27.7786
  0
LINE
  8
0
 10
-42.2319
 20
27.7786
 11
-41.4314
 21
27.6374
  0
LINE
  8
0
 10
-41.4314
 20
27.6374
 11
-42.0392
 21
24.1905
  0
LINE
  8
0
 10
-42.0392
 20
24.1905
 11
-42.8397
 21
24.3316
  0
LINE
  8
0
 10
-42.8397
 20
24.3316
 11
-43.7095
 21
19.3988
  0
LINE
  8
0
 10
-43.7095
 20
19.3988
 11
-42.909
 21
19.2577
  0
LINE
  8
0
 10
-42.909
 20
19.2577
 11
-43.5168
 21
15.8108
  0
LINE
  8
0
 10
-43.5168
 20
15.8108
 11
-44.3172
 21
15.9519
  0
LINE
  8
0
 10
-44.3172
 20
15.9519
 11
-44.4901
 21
14.9716
  0
LINE
  8
0
 10
-44.4901
 20
14.9716
 11
-58.2774
 21
17.4027
  0
LINE
  8
0
 10
6.0103
 20
13.7922
 11
5.20987
 21
13.651
  0
LINE
  8
0
 10
5.20987
 20
13.651
 11
4.60208
 21
17.098
  0
LINE
  8
0
 10
4.60208
 20
17.098
 11
5.40251
 21
17.2391
  0
LINE
  8
0
 10
5.40251
 20
17.2391
 11
4.53273
 21
22.1719
  0
LINE
  8
0
 10
4.53273
 20
22.1719
 11
3.7323
 21
22.0307
  0
LINE
  8
0
 10
3.7323
 20
22.0307
 11
3.12451
 21
25.4777
  0
LINE
  8
0
 10
3.12451
 20
25.4777
 11
3.92494
 21
25.6188
  0
LINE
  8
0
 10
3.92494
 20
25.6188
 11
3.75209
 21
26.5992
  0
LINE
  8
0
 10
3.75209
 20
26.5992
 11
17.5394
 21
29.0302
  0
LINE
  8
0
 10
17.5394
 20
29.0302
 11
17.7122
 21
28.0499
  0
LINE
  8
0
 10
17.7122
 20
28.0499
 11
18.5127
 21
28.191
  0
LINE
  8
0
 10
18.5127
 20
28.191
 11
19.1205
 21
24.7441
  0
LINE
  8
0
 10
19.1205
 20
24.7441
 11
18.32
 21
24.603
  0
LINE
  8
0
 10
18.32
 20
24.603
 11
19.1898
 21
19.6702
  0
LINE
  8
0
 10
19.1898
 20
19.6702
 11
19.9903
 21
19.8113
  0
LINE
  8
0
 10
19.9903
 20
19.8113
 11
20.5981
 21
16.3644
  0
LINE
  8
0
 10
20.5981
 20
16.3644
 11
19.7976
 21
16.2233
  0
LINE
  8
0
 10
19.7976
 20
16.2233
 11
19.9705
 21
15.2429
  0
LINE
  8
0
 10
19.9705
 20
15.2429
 11
6.18317
 21
12.8118
  0
LINE
  8
0
 10
6.18317
 20
12.8118
 11
6.0103
 21
13.7922
  0
LINE
  8
0
 10
-19.9705
 20
15.2429
 11
-19.7976
 21
16.2233
  0
LINE
  8
0
 10
-19.7976
 20
16.2233
 11
-20.5981
 21
16.3644
  0
LINE
  8
0
 10
-20.5981
 20
16.3644
 11
-19.9903
 21
19.8113
  0
LINE
  8
0
 10
-19.9903
 20
19.8113
 11
-19.1898
 21
19.6702
  0
LINE
  8
0
 10
-19.1898
 20
19.6702
 11
-18.32
 21
24.603
  0
LINE
  8
0
 10
-18.32
 20
24.603
 11
-19.1205
 21
24.7441
  0
LINE
  8
0
 10
-19.1205
 20
24.7441
 11
-18.5127
 21
28.191
  0
LINE
  8
0
 10
-18.5127
 20
28.191
 11
-17.7122
 21
28.0499
  0
LINE
  8
0
 10
-17.7122
 20
28.0499
 11
-17.5394
 21
29.0302
  0
LINE
  8
0
 10
-17.5394
 20
29.0302
 11
-3.75209
 21
26.5992
  0
LINE
  8
0
 10
-3.75209
 20
26.5992
 11
-3.92494
 21
25.6188
  0
LINE
  8
0
 10
-3.92494
 20
25.6188
 11
-3.12451
 21
25.4777
  0
LINE
  8
0
 10
-3.12451
 20
25.4777
 11
-3.7323
 21
22.0307
  0
LINE
  8
0
 10
-3.7323
 20
22.0307
 11
-4.53273
 21
22.1719
  0
LINE
  8
0
 10
-4.53273
 20
22.1719
 11
-5.40251
 21
17.2391
  0
LINE
  8
0
 10
-5.40251
 20
17.2391
 11
-4.60208
 21
17.098
  0
LINE
  8
0
 10
-4.60208
 20
17.098
 11
-5.20987
 21
13.651
  0
LINE
  8
0
 10
-5.20987
 20
13.651
 11
-6.0103
 21
13.7922
  0
LINE
  8
0
 10
-6.0103
 20
13.7922
 11
-6.18317
 21
12.8118
  0
LINE
  8
0
 10
-6.18317
 20
12.8118
 11
-19.9705
 21
15.2429
  0
LINE
  8
0
 10
140.797
 20
21.9321
 11
140.6
 21
21.9725
  0
LINE
  8
0
 10
140.6
 20
21.9725
 11
140.41
 21
22.0372
  0
LINE
  8
0
 10
140.41
 20
22.0372
 11
140.23
 21
22.1253
  0
LINE
  8
0
 10
140.23
 20
22.1253
 11
140.061
 21
22.2353
  0
LINE
  8
0
 10
140.061
 20
22.2353
 11
139.908
 21
22.3656
  0
LINE
  8
0
 10
139.908
 20
22.3656
 11
139.773
 21
22.5139
  0
LINE
  8
0
 10
139.773
 20
22.5139
 11
139.657
 21
22.6781
  0
LINE
  8
0
 10
139.657
 20
22.6781
 11
139.563
 21
22.8555
  0
LINE
  8
0
 10
139.563
 20
22.8555
 11
139.491
 21
23.0434
  0
LINE
  8
0
 10
139.491
 20
23.0434
 11
139.444
 21
23.2387
  0
LINE
  8
0
 10
139.444
 20
23.2387
 11
139.422
 21
23.4384
  0
LINE
  8
0
 10
139.422
 20
23.4384
 11
139.425
 21
23.6393
  0
LINE
  8
0
 10
139.425
 20
23.6393
 11
139.453
 21
23.8382
  0
LINE
  8
0
 10
139.453
 20
23.8382
 11
139.505
 21
24.0321
  0
LINE
  8
0
 10
139.505
 20
24.0321
 11
139.582
 21
24.2179
  0
LINE
  8
0
 10
139.582
 20
24.2179
 11
139.681
 21
24.3926
  0
LINE
  8
0
 10
139.681
 20
24.3926
 11
139.801
 21
24.5535
  0
LINE
  8
0
 10
139.801
 20
24.5535
 11
139.941
 21
24.698
  0
LINE
  8
0
 10
139.941
 20
24.698
 11
140.098
 21
24.8239
  0
LINE
  8
0
 10
140.098
 20
24.8239
 11
140.269
 21
24.9292
  0
LINE
  8
0
 10
140.269
 20
24.9292
 11
140.452
 21
25.0122
  0
LINE
  8
0
 10
140.452
 20
25.0122
 11
140.644
 21
25.0716
  0
LINE
  8
0
 10
140.644
 20
25.0716
 11
140.842
 21
25.1065
  0
LINE
  8
0
 10
140.842
 20
25.1065
 11
141.042
 21
25.1163
  0
LINE
  8
0
 10
141.042
 20
25.1163
 11
141.243
 21
25.1009
  0
LINE
  8
0
 10
141.243
 20
25.1009
 11
141.439
 21
25.0605
  0
LINE
  8
0
 10
141.439
 20
25.0605
 11
141.63
 21
24.9958
  0
LINE
  8
0
 10
141.63
 20
24.9958
 11
141.81
 21
24.9077
  0
LINE
  8
0
 10
141.81
 20
24.9077
 11
141.978
 21
24.7977
  0
LINE
  8
0
 10
141.978
 20
24.7977
 11
142.131
 21
24.6674
  0
LINE
  8
0
 10
142.131
 20
24.6674
 11
142.267
 21
24.5191
  0
LINE
  8
0
 10
142.267
 20
24.5191
 11
142.383
 21
24.3549
  0
LINE
  8
0
 10
142.383
 20
24.3549
 11
142.477
 21
24.1775
  0
LINE
  8
0
 10
142.477
 20
24.1775
 11
142.548
 21
23.9897
  0
LINE
  8
0
 10
142.548
 20
23.9897
 11
142.596
 21
23.7943
  0
LINE
  8
0
 10
142.596
 20
23.7943
 11
142.618
 21
23.5947
  0
LINE
  8
0
 10
142.618
 20
23.5947
 11
142.615
 21
23.3938
  0
LINE
  8
0
 10
142.615
 20
23.3938
 11
142.587
 21
23.1948
  0
LINE
  8
0
 10
142.587
 20
23.1948
 11
142.535
 21
23.0009
  0
LINE
  8
0
 10
142.535
 20
23.0009
 11
142.458
 21
22.8151
  0
LINE
  8
0
 10
142.458
 20
22.8151
 11
142.359
 21
22.6404
  0
LINE
  8
0
 10
142.359
 20
22.6404
 11
142.238
 21
22.4795
  0
LINE
  8
0
 10
142.238
 20
22.4795
 11
142.099
 21
22.335
  0
LINE
  8
0
 10
142.099
 20
22.335
 11
141.942
 21
22.2091
  0
LINE
  8
0
 10
141.942
 20
22.2091
 11
141.771
 21
22.1038
  0
LINE
  8
0
 10
141.771
 20
22.1038
 11
141.588
 21
22.0208
  0
LINE
  8
0
 10
141.588
 20
22.0208
 11
141.396
 21
21.9614
  0
LINE
  8
0
 10
141.396
 20
21.9614
 11
141.198
 21
21.9265
  0
LINE
  8
0
 10
141.198
 20
21.9265
 11
140.998
 21
21.9167
  0
LINE
  8
0
 10
140.998
 20
21.9167
 11
140.797
 21
21.9321
  0
LINE
  8
0
 10
-141.198
 20
21.9265
 11
-141.396
 21
21.9614
  0
LINE
  8
0
 10
-141.396
 20
21.9614
 11
-141.588
 21
22.0208
  0
LINE
  8
0
 10
-141.588
 20
22.0208
 11
-141.771
 21
22.1038
  0
LINE
  8
0
 10
-141.771
 20
22.1038
 11
-141.942
 21
22.2091
  0
LINE
  8
0
 10
-141.942
 20
22.2091
 11
-142.099
 21
22.335
  0
LINE
  8
0
 10
-142.099
 20
22.335
 11
-142.238
 21
22.4795
  0
LINE
  8
0
 10
-142.238
 20
22.4795
 11
-142.359
 21
22.6404
  0
LINE
  8
0
 10
-142.359
 20
22.6404
 11
-142.458
 21
22.8151
  0
LINE
  8
0
 10
-142.458
 20
22.8151
 11
-142.535
 21
23.0009
  0
LINE
  8
0
 10
-142.535
 20
23.0009
 11
-142.587
 21
23.1948
  0
LINE
  8
0
 10
-142.587
 20
23.1948
 11
-142.615
 21
23.3938
  0
LINE
  8
0
 10
-142.615
 20
23.3938
 11
-142.618
 21
23.5947
  0
LINE
  8
0
 10
-142.618
 20
23.5947
 11
-142.596
 21
23.7943
  0
LINE
  8
0
 10
-142.596
 20
23.7943
 11
-142.548
 21
23.9897
  0
LINE
  8
0
 10
-142.548
 20
23.9897
 11
-142.477
 21
24.1775
  0
LINE
  8
0
 10
-142.477
 20
24.1775
 11
-142.383
 21
24.3549
  0
LINE
  8
0
 10
-142.383
 20
24.3549
 11
-142.267
 21
24.5191
  0
LINE
  8
0
 10
-142.267
 20
24.5191
 11
-142.131
 21
24.6674
  0
LINE
  8
0
 10
-142.131
 20
24.6674
 11
-141.978
 21
24.7977
  0
LINE
  8
0
 10
-141.978
 20
24.7977
 11
-141.81
 21
24.9077
  0
LINE
  8
0
 10
-141.81
 20
24.9077
 11
-141.63
 21
24.9958
  0
LINE
  8
0
 10
-141.63
 20
24.9958
 11
-141.439
 21
25.0605
  0
LINE
  8
0
 10
-141.439
 20
25.0605
 11
-141.243
 21
25.1009
  0
LINE
  8
0
 10
-141.243
 20
25.1009
 11
-141.042
 21
25.1163
  0
LINE
  8
0
 10
-141.042
 20
25.1163
 11
-140.842
 21
25.1065
  0
LINE
  8
0
 10
-140.842
 20
25.1065
 11
-140.644
 21
25.0716
  0
LINE
  8
0
 10
-140.644
 20
25.0716
 11
-140.452
 21
25.0122
  0
LINE
  8
0
 10
-140.452
 20
25.0122
 11
-140.269
 21
24.9292
  0
LINE
  8
0
 10
-140.269
 20
24.9292
 11
-140.098
 21
24.8239
  0
LINE
  8
0
 10
-140.098
 20
24.8239
 11
-139.941
 21
24.698
  0
LINE
  8
0
 10
-139.941
 20
24.698
 11
-139.801
 21
24.5535
  0
LINE
  8
0
 10
-139.801
 20
24.5535
 11
-139.681
 21
24.3926
  0
LINE
  8
0
 10
-139.681
 20
24.3926
 11
-139.582
 21
24.2179
  0
LINE
  8
0
 10
-139.582
 20
24.2179
 11
-139.505
 21
24.0321
  0
LINE
  8
0
 10
-139.505
 20
24.0321
 11
-139.453
 21
23.8382
  0
LINE
  8
0
 10
-139.453
 20
23.8382
 11
-139.425
 21
23.6393
  0
LINE
  8
0
 10
-139.425
 20
23.6393
 11
-139.422
 21
23.4384
  0
LINE
  8
0
 10
-139.422
 20
23.4384
 11
-139.444
 21
23.2387
  0
LINE
  8
0
 10
-139.444
 20
23.2387
 11
-139.491
 21
23.0434
  0
LINE
  8
0
 10
-139.491
 20
23.0434
 11
-139.563
 21
22.8555
  0
LINE
  8
0
 10
-139.563
 20
22.8555
 11
-139.657
 21
22.6781
  0
LINE
  8
0
 10
-139.657
 20
22.6781
 11
-139.773
 21
22.5139
  0
LINE
  8
0
 10
-139.773
 20
22.5139
 11
-139.908
 21
22.3656
  0
LINE
  8
0
 10
-139.908
 20
22.3656
 11
-140.061
 21
22.2353
  0
LINE
  8
0
 10
-140.061
 20
22.2353
 11
-140.23
 21
22.1253
  0
LINE
  8
0
 10
-140.23
 20
22.1253
 11
-140.41
 21
22.0372
  0
LINE
  8
0
 10
-140.41
 20
22.0372
 11
-140.6
 21
21.9725
  0
LINE
  8
0
 10
-140.6
 20
21.9725
 11
-140.797
 21
21.9321
  0
LINE
  8
0
 10
-140.797
 20
21.9321
 11
-140.998
 21
21.9167
  0
LINE
  8
0
 10
-140.998
 20
21.9167
 11
-141.198
 21
21.9265
  0
LINE
  8
0
 10
-40.3851
 20
9.17062
 11
-40.2122
 21
10.151
  0
LINE
  8
0
 10
-40.2122
 20
10.151
 11
-41.0126
 21
10.2921
  0
LINE
  8
0
 10
-41.0126
 20
10.2921
 11
-40.4049
 21
13.739
  0
LINE
  8
0
 10
-40.4049
 20
13.739
 11
-39.6044
 21
13.5979
  0
LINE
  8
0
 10
-39.6044
 20
13.5979
 11
-38.7346
 21
18.5307
  0
LINE
  8
0
 10
-38.7346
 20
18.5307
 11
-39.5351
 21
18.6718
  0
LINE
  8
0
 10
-39.5351
 20
18.6718
 11
-38.9273
 21
22.1187
  0
LINE
  8
0
 10
-38.9273
 20
22.1187
 11
-38.1268
 21
21.9776
  0
LINE
  8
0
 10
-38.1268
 20
21.9776
 11
-37.954
 21
22.9579
  0
LINE
  8
0
 10
-37.954
 20
22.9579
 11
-24.1667
 21
20.5269
  0
LINE
  8
0
 10
-24.1667
 20
20.5269
 11
-24.3395
 21
19.5465
  0
LINE
  8
0
 10
-24.3395
 20
19.5465
 11
-23.5391
 21
19.4054
  0
LINE
  8
0
 10
-23.5391
 20
19.4054
 11
-24.1469
 21
15.9585
  0
LINE
  8
0
 10
-24.1469
 20
15.9585
 11
-24.9473
 21
16.0996
  0
LINE
  8
0
 10
-24.9473
 20
16.0996
 11
-25.8171
 21
11.1668
  0
LINE
  8
0
 10
-25.8171
 20
11.1668
 11
-25.0167
 21
11.0257
  0
LINE
  8
0
 10
-25.0167
 20
11.0257
 11
-25.6245
 21
7.57875
  0
LINE
  8
0
 10
-25.6245
 20
7.57875
 11
-26.4249
 21
7.71988
  0
LINE
  8
0
 10
-26.4249
 20
7.71988
 11
-26.5977
 21
6.73956
  0
LINE
  8
0
 10
-26.5977
 20
6.73956
 11
-40.3851
 21
9.17062
  0
LINE
  8
0
 10
26.4249
 20
7.71988
 11
25.6245
 21
7.57875
  0
LINE
  8
0
 10
25.6245
 20
7.57875
 11
25.0167
 21
11.0257
  0
LINE
  8
0
 10
25.0167
 20
11.0257
 11
25.8171
 21
11.1668
  0
LINE
  8
0
 10
25.8171
 20
11.1668
 11
24.9473
 21
16.0996
  0
LINE
  8
0
 10
24.9473
 20
16.0996
 11
24.1469
 21
15.9585
  0
LINE
  8
0
 10
24.1469
 20
15.9585
 11
23.5391
 21
19.4054
  0
LINE
  8
0
 10
23.5391
 20
19.4054
 11
24.3395
 21
19.5465
  0
LINE
  8
0
 10
24.3395
 20
19.5465
 11
24.1667
 21
20.5269
  0
LINE
  8
0
 10
24.1667
 20
20.5269
 11
37.954
 21
22.9579
  0
LINE
  8
0
 10
37.954
 20
22.9579
 11
38.1268
 21
21.9776
  0
LINE
  8
0
 10
38.1268
 20
21.9776
 11
38.9273
 21
22.1187
  0
LINE
  8
0
 10
38.9273
 20
22.1187
 11
39.5351
 21
18.6718
  0
LINE
  8
0
 10
39.5351
 20
18.6718
 11
38.7346
 21
18.5307
  0
LINE
  8
0
 10
38.7346
 20
18.5307
 11
39.6044
 21
13.5979
  0
LINE
  8
0
 10
39.6044
 20
13.5979
 11
40.4049
 21
13.739
  0
LINE
  8
0
 10
40.4049
 20
13.739
 11
41.0126
 21
10.2921
  0
LINE
  8
0
 10
41.0126
 20
10.2921
 11
40.2122
 21
10.151
  0
LINE
  8
0
 10
40.2122
 20
10.151
 11
40.3851
 21
9.17062
  0
LINE
  8
0
 10
40.3851
 20
9.17062
 11
26.5977
 21
6.73956
  0
LINE
  8
0
 10
26.5977
 20
6.73956
 11
26.4249
 21
7.71988
  0
LINE
  8
0
 10
-21.6275
 20
-2.20332
 11
-21.8254
 21
-2.16844
  0
LINE
  8
0
 10
-21.8254
 20
-2.16844
 11
-22.0174
 21
-2.10902
  0
LINE
  8
0
 10
-22.0174
 20
-2.10902
 11
-22.2003
 21
-2.02602
  0
LINE
  8
0
 10
-22.2003
 20
-2.02602
 11
-22.3715
 21
-1.92075
  0
LINE
  8
0
 10
-22.3715
 20
-1.92075
 11
-22.5281
 21
-1.79483
  0
LINE
  8
0
 10
-22.5281
 20
-1.79483
 11
-22.6677
 21
-1.6503
  0
LINE
  8
0
 10
-22.6677
 20
-1.6503
 11
-22.788
 21
-1.48941
  0
LINE
  8
0
 10
-22.788
 20
-1.48941
 11
-22.8873
 21
-1.3147
  0
LINE
  8
0
 10
-22.8873
 20
-1.3147
 11
-22.9638
 21
-1.12892
  0
LINE
  8
0
 10
-22.9638
 20
-1.12892
 11
-23.0165
 21
-0.935028
  0
LINE
  8
0
 10
-23.0165
 20
-0.935028
 11
-23.0445
 21
-0.736053
  0
LINE
  8
0
 10
-23.0445
 20
-0.736053
 11
-23.0473
 21
-0.535141
  0
LINE
  8
0
 10
-23.0473
 20
-0.535141
 11
-23.0249
 21
-0.335464
  0
LINE
  8
0
 10
-23.0249
 20
-0.335464
 11
-22.9776
 21
-0.140167
  0
LINE
  8
0
 10
-22.9776
 20
-0.140167
 11
-22.9063
 21
0.0476379
  0
LINE
  8
0
 10
-22.9063
 20
0.0476379
 11
-22.812
 21
0.225052
  0
LINE
  8
0
 10
-22.812
 20
0.225052
 11
-22.6962
 21
0.389252
  0
LINE
  8
0
 10
-22.6962
 20
0.389252
 11
-22.5607
 21
0.537628
  0
LINE
  8
0
 10
-22.5607
 20
0.537628
 11
-22.4076
 21
0.667847
  0
LINE
  8
0
 10
-22.4076
 20
0.667847
 11
-22.2395
 21
0.777878
  0
LINE
  8
0
 10
-22.2395
 20
0.777878
 11
-22.0589
 21
0.865967
  0
LINE
  8
0
 10
-22.0589
 20
0.865967
 11
-21.8687
 21
0.930695
  0
LINE
  8
0
 10
-21.8687
 20
0.930695
 11
-21.6719
 21
0.971115
  0
LINE
  8
0
 10
-21.6719
 20
0.971115
 11
-21.4715
 21
0.986526
  0
LINE
  8
0
 10
-21.4715
 20
0.986526
 11
-21.2708
 21
0.976715
  0
LINE
  8
0
 10
-21.2708
 20
0.976715
 11
-21.073
 21
0.941818
  0
LINE
  8
0
 10
-21.073
 20
0.941818
 11
-20.881
 21
0.882401
  0
LINE
  8
0
 10
-20.881
 20
0.882401
 11
-20.698
 21
0.799393
  0
LINE
  8
0
 10
-20.698
 20
0.799393
 11
-20.5269
 21
0.694107
  0
LINE
  8
0
 10
-20.5269
 20
0.694107
 11
-20.3703
 21
0.568222
  0
LINE
  8
0
 10
-20.3703
 20
0.568222
 11
-20.2307
 21
0.423676
  0
LINE
  8
0
 10
-20.2307
 20
0.423676
 11
-20.1104
 21
0.262772
  0
LINE
  8
0
 10
-20.1104
 20
0.262772
 11
-20.0111
 21
0.0880737
  0
LINE
  8
0
 10
-20.0111
 20
0.0880737
 11
-19.9346
 21
-0.0976715
  0
LINE
  8
0
 10
-19.9346
 20
-0.0976715
 11
-19.8819
 21
-0.29158
  0
LINE
  8
0
 10
-19.8819
 20
-0.29158
 11
-19.8539
 21
-0.490555
  0
LINE
  8
0
 10
-19.8539
 20
-0.490555
 11
-19.8511
 21
-0.691452
  0
LINE
  8
0
 10
-19.8511
 20
-0.691452
 11
-19.8735
 21
-0.891144
  0
LINE
  8
0
 10
-19.8735
 20
-0.891144
 11
-19.9207
 21
-1.08644
  0
LINE
  8
0
 10
-19.9207
 20
-1.08644
 11
-19.9921
 21
-1.27428
  0
LINE
  8
0
 10
-19.9921
 20
-1.27428
 11
-20.0864
 21
-1.45168
  0
LINE
  8
0
 10
-20.0864
 20
-1.45168
 11
-20.2023
 21
-1.61586
  0
LINE
  8
0
 10
-20.2023
 20
-1.61586
 11
-20.3378
 21
-1.76424
  0
LINE
  8
0
 10
-20.3378
 20
-1.76424
 11
-20.4908
 21
-1.89449
  0
LINE
  8
0
 10
-20.4908
 20
-1.89449
 11
-20.6589
 21
-2.0045
  0
LINE
  8
0
 10
-20.6589
 20
-2.0045
 11
-20.8395
 21
-2.09258
  0
LINE
  8
0
 10
-20.8395
 20
-2.09258
 11
-21.0297
 21
-2.15733
  0
LINE
  8
0
 10
-21.0297
 20
-2.15733
 11
-21.2265
 21
-2.19774
  0
LINE
  8
0
 10
-21.2265
 20
-2.19774
 11
-21.4269
 21
-2.21315
  0
LINE
  8
0
 10
-21.4269
 20
-2.21315
 11
-21.6275
 21
-2.20332
  0
LINE
  8
0
 10
21.2265
 20
-2.19774
 11
21.0297
 21
-2.15733
  0
LINE
  8
0
 10
21.0297
 20
-2.15733
 11
20.8395
 21
-2.09258
  0
LINE
  8
0
 10
20.8395
 20
-2.09258
 11
20.6589
 21
-2.0045
  0
LINE
  8
0
 10
20.6589
 20
-2.0045
 11
20.4908
 21
-1.89449
  0
LINE
  8
0
 10
20.4908
 20
-1.89449
 11
20.3378
 21
-1.76424
  0
LINE
  8
0
 10
20.3378
 20
-1.76424
 11
20.2023
 21
-1.61586
  0
LINE
  8
0
 10
20.2023
 20
-1.61586
 11
20.0864
 21
-1.45168
  0
LINE
  8
0
 10
20.0864
 20
-1.45168
 11
19.9921
 21
-1.27428
  0
LINE
  8
0
 10
19.9921
 20
-1.27428
 11
19.9207
 21
-1.08644
  0
LINE
  8
0
 10
19.9207
 20
-1.08644
 11
19.8735
 21
-0.891144
  0
LINE
  8
0
 10
19.8735
 20
-0.891144
 11
19.8511
 21
-0.691452
  0
LINE
  8
0
 10
19.8511
 20
-0.691452
 11
19.8539
 21
-0.490555
  0
LINE
  8
0
 10
19.8539
 20
-0.490555
 11
19.8819
 21
-0.29158
  0
LINE
  8
0
 10
19.8819
 20
-0.29158
 11
19.9346
 21
-0.0976715
  0
LINE
  8
0
 10
19.9346
 20
-0.0976715
 11
20.0111
 21
0.0880737
  0
LINE
  8
0
 10
20.0111
 20
0.0880737
 11
20.1104
 21
0.262772
  0
LINE
  8
0
 10
20.1104
 20
0.262772
 11
20.2307
 21
0.423676
  0
LINE
  8
0
 10
20.2307
 20
0.423676
 11
20.3703
 21
0.568222
  0
LINE
  8
0
 10
20.3703
 20
0.568222
 11
20.5269
 21
0.694107
  0
LINE
  8
0
 10
20.5269
 20
0.694107
 11
20.698
 21
0.799393
  0
LINE
  8
0
 10
20.698
 20
0.799393
 11
20.881
 21
0.882401
  0
LINE
  8
0
 10
20.881
 20
0.882401
 11
21.073
 21
0.941818
  0
LINE
  8
0
 10
21.073
 20
0.941818
 11
21.2708
 21
0.976715
  0
LINE
  8
0
 10
21.2708
 20
0.976715
 11
21.4715
 21
0.986526
  0
LINE
  8
0
 10
21.4715
 20
0.986526
 11
21.6719
 21
0.971115
  0
LINE
  8
0
 10
21.6719
 20
0.971115
 11
21.8687
 21
0.930695
  0
LINE
  8
0
 10
21.8687
 20
0.930695
 11
22.0589
 21
0.865967
  0
LINE
  8
0
 10
22.0589
 20
0.865967
 11
22.2395
 21
0.777878
  0
LINE
  8
0
 10
22.2395
 20
0.777878
 11
22.4076
 21
0.667847
  0
LINE
  8
0
 10
22.4076
 20
0.667847
 11
22.5607
 21
0.537628
  0
LINE
  8
0
 10
22.5607
 20
0.537628
 11
22.6962
 21
0.389252
  0
LINE
  8
0
 10
22.6962
 20
0.389252
 11
22.812
 21
0.225052
  0
LINE
  8
0
 10
22.812
 20
0.225052
 11
22.9063
 21
0.0476379
  0
LINE
  8
0
 10
22.9063
 20
0.0476379
 11
22.9776
 21
-0.140167
  0
LINE
  8
0
 10
22.9776
 20
-0.140167
 11
23.0249
 21
-0.335464
  0
LINE
  8
0
 10
23.0249
 20
-0.335464
 11
23.0473
 21
-0.535141
  0
LINE
  8
0
 10
23.0473
 20
-0.535141
 11
23.0445
 21
-0.736053
  0
LINE
  8
0
 10
23.0445
 20
-0.736053
 11
23.0165
 21
-0.935028
  0
LINE
  8
0
 10
23.0165
 20
-0.935028
 11
22.9638
 21
-1.12892
  0
LINE
  8
0
 10
22.9638
 20
-1.12892
 11
22.8873
 21
-1.3147
  0
LINE
  8
0
 10
22.8873
 20
-1.3147
 11
22.788
 21
-1.48941
  0
LINE
  8
0
 10
22.788
 20
-1.48941
 11
22.6677
 21
-1.6503
  0
LINE
  8
0
 10
22.6677
 20
-1.6503
 11
22.5281
 21
-1.79483
  0
LINE
  8
0
 10
22.5281
 20
-1.79483
 11
22.3715
 21
-1.92075
  0
LINE
  8
0
 10
22.3715
 20
-1.92075
 11
22.2003
 21
-2.02602
  0
LINE
  8
0
 10
22.2003
 20
-2.02602
 11
22.0174
 21
-2.10902
  0
LINE
  8
0
 10
22.0174
 20
-2.10902
 11
21.8254
 21
-2.16844
  0
LINE
  8
0
 10
21.8254
 20
-2.16844
 11
21.6275
 21
-2.20332
  0
LINE
  8
0
 10
21.6275
 20
-2.20332
 11
21.4269
 21
-2.21315
  0
LINE
  8
0
 10
21.4269
 20
-2.21315
 11
21.2265
 21
-2.19774
  0
ENDSEC
  0
SECTION
  2
OBJECTS
  0
DICTIONARY
  0
ENDSEC
  0
EOF
